<?xml version="1.0" encoding="utf-8" ?>
<svg xmlns="http://www.w3.org/2000/svg" xmlns:xlink="http://www.w3.org/1999/xlink" width="1024" height="1024">
	<path fill="#E9E9E9" d="M0 0L614.499 0L632.5 0L1024 0L1024 1024L0 1024L0 0Z"/>
	<path d="M346.379 507.262C346.472 508.253 346.599 509.272 346.597 510.267C346.594 511.378 346.549 511.918 345.724 512.712L344.432 512.184C343.459 511.43 342.847 510.937 342.212 509.853C342.847 508.476 344.983 507.905 346.379 507.262Z"/>
	<path d="M433.045 752.214C434.531 752.057 435.743 751.981 437.235 752.261L437.556 754.041C438.046 756.785 439.659 762.074 438.043 764.395C434.822 765.449 430.622 762.457 427.661 761.018C424.363 759.587 418.28 757.481 416.437 754.354L416.782 753.728C420.475 752.453 428.634 752.651 433.045 752.214Z"/>
	<path d="M563.856 658.559C566.011 658.464 568.05 658.101 569.857 659.4C571.168 662.18 571.24 686.219 570.695 690.208L569.881 690.758Q569.316 690.88 568.747 690.985C567.106 691.285 565.314 691.552 563.86 690.571C563.181 685.918 563.752 680.549 563.803 675.799C563.865 670.056 563.652 664.296 563.856 658.559Z"/>
	<path d="M335.341 540.394C336.712 541.605 337.197 543.897 337.758 545.605C329.194 554.953 312.928 557.235 300.959 558.154L297.919 551.821Q298.549 551.847 299.179 551.853C311.178 551.968 326.425 549.105 335.341 540.394Z"/>
	<path d="M422.509 865.524C424.311 867.269 424.845 871.117 425.443 873.513C416.081 880.252 408.111 888.731 398.846 895.602C398.415 895.853 397.932 895.97 397.459 896.124C396.287 894.019 397.009 889.031 397.072 886.539C404.314 878.941 413.288 870.698 422.509 865.524Z"/>
	<path d="M490.674 854.419C493.889 854.609 497.065 855.23 500.24 855.755C501.004 867.811 502.37 879.762 502.858 891.851C499.97 892.124 496.624 892.728 493.805 892.004C492.79 880.389 493.345 866.398 490.865 855.254L490.674 854.419Z"/>
	<path d="M500.824 901.261C501.387 901.063 502.004 901.187 502.595 901.217C505.287 904.795 506.562 932.818 506.688 938.973C505.529 939.727 503.986 939.552 502.613 939.644L496.439 939.363C496.836 927.111 495.802 913.824 494.372 901.628Q497.597 901.424 500.824 901.261Z"/>
	<path d="M807.988 915.251C809.274 916.803 808.574 938.004 808.572 941.72C804.817 942.66 798.441 942.304 794.67 941.456L793.914 941.666C793.238 940.505 793.521 918.652 793.51 915.547C798.344 915.531 803.158 915.481 807.988 915.251Z"/>
	<path d="M926.978 917.563C932.142 917.41 937.856 917.042 942.901 918.298C943.918 919.856 942.101 939.375 941.982 942.865C939.793 944.701 930.18 943.54 927.076 943.477C927.111 937.093 928.394 923.172 926.978 917.563Z"/>
	<path d="M361.225 907.42C366.607 907.614 372.485 908.542 377.735 909.759C377.865 909.975 378.032 910.174 378.126 910.409C378.578 911.53 379.381 933.975 379.128 936.219C379.033 937.065 378.697 937.61 378.296 938.34L378.757 939.006C376.618 940.607 366.576 939.531 363.531 939.462C363.773 928.916 362.273 917.92 361.225 907.42Z"/>
	<path d="M611.571 205.291C622.561 206.142 633.834 205.224 644.854 205.168C649.287 205.145 653.788 204.833 658.161 205.672C656.214 211.101 653.812 214.591 649.071 217.94Q642.723 218.053 636.374 218.044C626.926 216.928 605.391 220.372 597.798 216.773C592.982 214.49 591.493 210.295 589.855 205.625C597.064 205.547 604.38 205.735 611.571 205.291Z"/>
	<path d="M620.756 105.583C621.877 105.477 622.941 105.454 624.066 105.514C630.55 105.858 636.419 108.981 640.607 113.889C645.573 119.709 647.434 126.016 646.923 133.535C640.676 132.411 634.21 132.381 627.888 131.839C619.828 130.484 610.474 134.136 603.298 133.303C602.152 133.17 602.074 132.803 601.514 131.911C601.954 125.523 602.74 120.28 606.396 114.875C609.996 109.552 614.563 106.792 620.756 105.583Z"/>
	<path d="M274.778 525.358C279.149 529.333 285.031 542.929 287.797 548.615C294.031 561.432 300.279 574.62 305.154 588.025C321.421 632.753 328.997 680.978 335.991 727.863L335.558 728.238L333.801 727.361L328.155 724.443C323.147 659.21 310.087 584.213 269.701 530.871C271.344 528.993 273.082 527.189 274.778 525.358Z"/>
	<path d="M429.251 663.561L478.644 663.452C488.831 663.477 499.087 663.3 509.258 663.912C508.937 668.222 509.897 672.471 509.1 676.764C508.034 677.857 507.935 677.696 506.384 677.785C498.721 677.047 488.149 677.697 480.234 677.716C464.314 677.753 448.446 677.528 432.526 678.053Q430.955 670.792 429.251 663.561Z"/>
	<path d="M462.44 330.219C472.009 339.89 462.206 357.246 465.943 364.107C466.258 364.686 466.737 365.221 467.4 365.348C468.497 365.558 469.82 365.098 470.711 364.446C473.039 362.746 473.397 356.095 473.888 353.281C476.042 357.994 477.354 368.413 481.385 371.463C482.217 372.093 483.256 372.219 484.259 372.011C487.342 371.374 490.511 369.738 493.542 368.78C497.505 367.528 501.671 366.818 505.751 366.045C504.461 370.195 503.024 373.918 500.944 377.742C495.788 387.185 491.094 391.158 482.984 397.945C479.155 395.624 462.697 387.918 461.058 385.595C463.545 373.94 458.442 363.559 458.328 352.212C458.258 345.107 460.684 337.11 462.44 330.219Z"/>
	<path d="M335.948 517.25C336.424 517.486 336.473 517.487 336.964 517.865C342.734 522.313 346.23 531.875 349.283 538.279C362.056 565.069 371.018 593.517 379.039 622.014C384.571 641.668 389.714 661.153 394.222 681.07C399.702 705.28 404.967 729.272 407.781 753.975C406.7 753.552 406.097 753.294 405.594 752.192C403.874 748.427 403.693 742.631 402.775 738.477C400.512 728.231 397.921 718.079 395.401 707.896C382.234 654.69 367.852 601.275 349.015 549.763C345.176 539.264 341.665 526.851 335.948 517.25Z"/>
	<path d="M856.577 853.795C864.036 854.818 871.966 854.321 879.512 854.777C889.238 855.365 898.886 856.978 908.518 858.383C908.483 862.919 908.961 867.315 909.689 871.786C903.302 870.335 896.619 869.694 890.123 868.893C867.388 866.089 843.365 864.114 820.486 866.292C810.954 866.455 801.679 867.41 792.22 868.469C785.593 869.211 778.937 870.294 772.256 870.024L771.722 871.201C769.544 871.363 767.43 871.853 765.294 872.291C791.455 855.254 826.232 854.221 856.577 853.795Z"/>
	<path d="M826.768 874.169C832.185 874.864 838.216 873.891 843.751 874.001C857.316 874.272 902.299 876.299 913.096 881.695C914.862 884.409 916.144 886.951 917.383 889.932C904.05 888.578 890.748 886.916 877.359 886.166C869.567 885.73 849.566 886.142 843.51 884.575C838.506 885.807 832.033 885.105 826.84 885.226Q812.612 885.614 798.4 886.381C790.244 886.853 782.05 887.333 773.924 888.173C766.638 888.926 759.286 890.098 751.968 890.339C752.995 887.568 754.312 885.281 755.874 882.791C762.19 880.793 768.618 879.959 775.157 879.029C792.372 876.58 809.507 875.908 826.768 874.169Z"/>
	<path d="M287.565 780.343C300.433 787.494 314.884 791.194 329.292 793.756C330.947 806.982 332.376 820.44 336.257 833.209C320.816 831.197 306.097 825.056 291.156 820.887C290.313 807.375 288.144 793.832 287.565 780.343Z"/>
	<path d="M386.896 759.534C400.453 759.526 415.659 763.846 427.111 771.117C431.337 773.8 434.903 777.242 438.163 781.023C443.029 786.668 454.448 803.749 455.802 810.936C455.995 811.962 456.113 812.173 455.496 813.052C452.64 811.865 442.927 797.393 439.934 793.944C437.314 790.924 429.182 784.308 424.97 784.65C423.657 784.757 423.426 785.272 422.743 786.241C422.717 787.562 422.745 788.335 423.642 789.377C425.329 791.335 428.288 792.997 430.302 794.739C435.874 799.556 441.659 805.972 445.435 812.317C447.225 815.325 452.764 823.339 451.557 826.781C451.282 827.567 450.197 827.713 449.483 828.011C444.078 820.04 427.274 793.19 418.505 792.23C417.218 792.089 416.402 792.594 415.439 793.331C415.244 794.758 415.5 795.6 416.301 796.81C418.592 800.27 422.213 802.961 425.016 806.02C428.393 809.705 439.353 822.923 439.548 827.534C438.049 827.703 437.069 826.92 435.935 825.99C430.892 821.854 426.585 815.996 421.972 811.295C410.542 799.643 396.973 791.14 382.195 784.45C382.558 779.47 383.899 762.853 386.896 759.534Z"/>
	<path d="M427.255 881.92C431.367 885.859 437.632 930.49 438.86 938.883C425.502 939.717 412.004 939.594 398.624 939.416C395.632 939.297 390.818 940.033 388.13 939.058C386.828 930.026 386.977 919.952 386.958 910.797C389.334 910.445 391.786 910.109 394.015 909.17C404.7 904.669 417.267 889.354 427.255 881.92Z"/>
	<path d="M823.702 893.747C850.922 893.622 877.808 893.986 904.858 897.353C910.957 898.112 917.702 898.467 923.638 900.024C927.839 901.126 929.522 905.727 931.615 909.248C920.482 908.508 909.337 908.74 898.195 908.368C884.947 907.926 871.643 906.926 858.378 907.268C848.999 906.559 839.571 906.951 830.178 906.975C810.582 907.024 791.004 907.357 771.405 906.999C765.622 906.893 758.192 906.248 753.955 901.847C753.622 900.673 753.505 900.712 754.088 899.661C760.484 896.182 797.82 894.827 807.888 894.452C812.522 894.279 818.287 894.864 822.768 893.957C823.081 893.894 823.39 893.817 823.702 893.747Z"/>
	<path d="M437.959 686.247C451.592 686.061 465.226 686.328 478.86 686.385C488.918 686.426 498.995 686.179 509.048 686.446C509.442 695.463 509.13 704.464 509.106 713.485C506.373 713.871 503.629 713.963 500.875 714.092C481.504 715.566 461.45 717.347 442.328 720.765L434.608 687.15C435.619 686.251 436.644 686.399 437.959 686.247Z"/>
	<path d="M517.372 649.301C526.225 649.697 546.388 648.458 553.872 650.568C554.383 651.29 554.42 651.613 554.464 652.512C554.761 658.673 556.558 708.089 554.376 710.516C542.626 710.082 529.746 710.784 518.076 712.29C517.512 704.235 517.837 696.021 517.831 687.945Q517.828 668.62 517.372 649.301Z"/>
	<path d="M959.802 629.874C960.092 632.321 959.608 635.111 959.552 637.598C959.265 650.386 957.707 663.144 957.153 675.934Q952.945 764.542 947.015 853.051C946.537 860.244 943.4 900.288 944.328 904.49C944.457 905.074 944.591 905.488 944.562 906.097C944.507 907.25 944.413 907.339 943.61 908.078C941.512 907.016 939.469 903.67 938.135 901.724C937.487 900.699 936.833 899.527 936.583 898.332C935.062 891.068 937.657 864.102 938 855.007C939.484 815.731 944.053 656.027 959.802 629.874Z"/>
	<path d="M149.905 602.824C152.052 604.344 154.114 606.062 156.107 607.778C168.505 618.455 176.863 632.623 182.786 647.743C188.773 663.025 191.562 679.687 194.587 695.745C202.168 735.998 206.171 776.096 208.576 816.988C209.536 833.324 209.518 849.734 210.688 866.042L205.256 868.227C204.535 868.769 203.785 869.23 203.015 869.698C201.735 868.006 202.209 852.927 201.937 849.688C198.631 810.356 195.544 771.263 190.302 732.109C186.378 702.805 182.85 672.414 170.422 645.261C163.912 631.037 155.955 621.147 145.121 609.985C146.533 607.491 148.267 605.173 149.905 602.824Z"/>
	<path d="M245.596 877.745C251.211 878.558 257.067 877.894 262.736 877.824Q274.784 877.743 286.83 877.915C306.832 878.265 326.873 880.228 346.709 882.742C360.41 884.478 374.005 886.223 387.365 889.832C387.89 892.766 388.605 895.939 388.532 898.927C388.502 900.138 388.452 900.885 387.554 901.748C374.294 901.266 359.252 898.375 345.622 897.166C319.145 894.759 292.882 893.911 266.333 893.223C245.564 892.685 224.328 891.954 203.582 893.072Q203.158 886.407 203.054 879.729C217.225 878.56 231.415 878.563 245.596 877.745Z"/>
	<path d="M824.608 915.294C825.565 915.434 825.277 915.445 826.068 915.407C837.421 914.859 848.973 915.386 860.344 915.525C879.845 915.763 899.622 916.002 919.094 917.15Q918.549 930.264 918.502 943.389Q914.811 943.377 911.121 943.289C908.245 944.054 887.649 942.936 882.816 942.851L817.019 942.12C816.532 933.277 816.81 924.268 816.49 915.389C819.24 915.519 821.861 915.512 824.608 915.294Z"/>
	<path d="M600.591 762.835C607.067 767.633 612.115 776.154 617.07 782.506Q617.789 841.756 617.351 901.008C617.242 913.927 617.89 927.048 617.311 939.938C613.556 939.945 604.765 940.89 601.768 938.705L601.124 852.502C600.754 822.663 599.765 792.666 600.591 762.835Z"/>
	<path d="M959.067 600.74L959.865 600.958C961.935 603.733 960.514 611.39 960.777 615.176L959.065 616.595C951.719 622.657 946.711 640.79 944.764 650.043C938.461 680 936.606 714.201 934.841 744.796Q932.295 784.466 930.743 824.188C929.967 845.491 929.82 867.202 927.328 888.372C925.654 886.347 924.584 884.354 923.468 882.007C922.125 878.991 919.879 876.503 918.987 873.289C916.469 864.226 916.525 829.598 916.731 818.504C917.34 785.694 920.046 753.473 924.148 720.942C927.637 693.267 931.908 665.555 939.634 638.717C941.879 630.92 943.997 622.912 947.628 615.622C950.557 609.742 954.359 605.265 959.067 600.74Z"/>
	<path d="M356.871 533.333C359.893 535.582 362.617 538.382 365.187 541.129C401.237 579.645 411.761 630.946 424.234 680.398C426.248 688.382 433.275 715.266 433.046 721.435C432.157 722.516 430.465 722.655 429.16 722.974C423.435 723.325 417.854 724.526 412.295 725.877C401.435 670.292 388.576 614.541 368.229 561.598C364.556 552.042 361.235 542.627 356.871 533.333Z"/>
	<path d="M318.031 839.437C323.445 839.414 330.799 842.678 336.425 843.605C356.096 846.846 375.994 849.082 395.723 852.038C399.912 852.665 417.283 854.301 419.445 856.013C416.798 860.958 405.607 867.877 400.8 871.972C397.178 875.058 393.782 878.392 390.38 881.717Q371.273 877.678 351.952 874.835C346.144 873.961 340.24 873.571 334.487 872.399C331.068 872.7 327.347 871.929 323.914 871.617Q315.839 870.873 307.736 870.534C288.28 869.613 268.999 869.412 249.524 869.552C246.746 869.572 225.076 870.748 224.207 870.245C231.545 866.427 240.466 865.129 248.384 862.822Q265.821 857.692 283.172 852.281C294.935 848.612 306.998 845.003 318.031 839.437Z"/>
	<path d="M150.345 627.857C150.839 628.228 150.947 628.282 151.425 628.806C161.825 640.205 170.169 667.565 173.714 682.83C176.343 694.146 177.887 705.583 179.587 717.059C182.219 734.817 184.518 752.395 186.347 770.249C187.326 779.816 188.607 789.336 189.446 798.92Q193.752 847.068 194.729 895.399L195.578 926.38C195.648 930.115 196.176 934.112 195.838 937.805C191.304 938.907 186.157 938.647 181.532 938.254C181.055 919.967 181.421 901.703 180.58 883.412C179.94 869.493 178.562 855.555 177.439 841.667L172.03 777.233C167.631 727.135 162.544 676.734 150.345 627.857Z"/>
	<path d="M217.871 901.25C225.129 900.294 233.525 901.217 240.919 901.284C256.389 901.424 344.346 901.832 352.952 906.845L355.3 939.426C350.497 939.296 345.679 939.441 340.875 939.508L203.807 938.486C204.932 926.059 203.273 913.751 204.227 901.407C208.769 901.459 213.328 901.311 217.871 901.25Z"/>
	<path d="M619.789 716.323C633.263 715.733 647.176 716.483 660.658 716.944C706.341 718.507 751.467 723.02 795.971 733.884C810.509 737.433 827.441 741.438 835.683 755.044C824.192 751.208 811.969 748.702 800.131 746.213C746.44 734.927 692.051 732.546 637.375 731.495C562.908 730.599 489.107 736.907 415.22 745.675C414.39 741.749 413.976 737.692 413.426 733.716C423.151 732.423 432.815 730.451 442.525 728.979C455.972 726.941 469.592 725.43 483.116 723.974Q535.518 718.544 588.165 716.612C598.698 716.28 609.251 716.568 619.789 716.323Z"/>
	<path d="M628.072 139.877C631.525 141.122 636.245 140.877 639.988 141.327C650.995 142.653 662.784 145.653 672.436 151.259C690.33 161.652 702.211 176.478 707.486 196.46C678.198 195.709 648.841 197.468 619.544 196.964Q579.228 197.063 538.919 197.833C540.497 192.367 542.527 187.143 545.447 182.241C559.657 158.381 583.74 146.27 610.192 141.462C615.661 140.467 622.111 141.596 627.301 140.113C627.56 140.039 627.815 139.956 628.072 139.877Z"/>
	<path d="M331.247 403.451C334.104 405.12 335.736 411.751 336.729 414.744C334.166 415.394 331.21 415.975 328.958 417.395C327.4 418.378 326.134 419.469 325.703 421.315C326.117 422.389 326.346 422.687 327.467 423.23C330.686 424.788 336.02 422.7 339.191 421.826C339.97 424.096 340.554 426.455 341.204 428.766C336.78 429.785 331.186 430.834 327.702 433.817C325.699 431.115 323.927 429.085 320.485 428.42C319.707 428.847 319.658 428.682 319.356 429.366C315.999 436.956 330.25 445.768 332.54 452.027C334.333 456.928 329.252 455.805 327.716 459.147C327.695 460.449 327.995 460.97 328.687 462.056C329.773 462.806 330.528 463.184 331.873 463.205C333.754 463.235 338.058 462.476 339.256 461.008C340.49 459.494 340.479 457.513 340.363 455.646C340 449.789 338.457 444.981 333.939 441.114C333.257 440.53 332.922 440.22 332.643 439.327C335.96 439.632 340.085 437.341 342.884 435.63C346.625 448.451 350.674 461.194 350.803 474.701C351.003 495.741 340.85 503.359 320.745 505.557C317.072 505.959 311.812 505.74 309.097 508.493L309.116 509.485C309.552 510.002 309.559 510.057 310.184 510.532C313.86 513.327 319.259 513.339 323.616 512.908L324.59 513.255C326.025 514.568 330.834 529.704 331.737 532.656C320.615 540.439 309.54 545.54 295.491 543.144C292.336 539.75 290.462 534.659 288.178 530.649C286.405 527.537 284.397 524.536 282.558 521.458C283 519.253 283.451 517.069 283.38 514.808C283.207 509.318 279.546 484.708 274.982 482.096C271.151 479.903 266.154 483.427 262.294 479.426C260.268 477.326 259.093 473.538 259.126 470.671C259.17 466.77 262.101 464.634 264.684 462.151C269.453 463.054 273.428 465 278.464 464.153C280.554 463.801 282.764 462.894 283.863 460.97C286.845 455.749 281.72 444.212 279.997 438.784C280.492 438.451 280.982 438.107 281.481 437.777C283.684 436.319 285.415 435.174 286.195 432.516C287.776 427.13 283.755 420.978 281.381 416.375C300.607 413.314 313.507 413.661 331.247 403.451Z"/>
	<path fill="#E9E9E9" d="M306.088 438.601C307.439 438.508 308.805 438.393 310.16 438.404C312.219 438.421 313.588 439.013 315.01 440.479C315.094 441.803 315.112 442.135 314.293 443.278C312.113 446.319 308.509 446.698 305.131 447.372C303.49 447.704 301.431 448.261 299.763 447.822C298.385 447.459 297.931 446.893 297.149 445.766C297.081 444.462 297.267 443.732 297.993 442.672C299.952 439.807 302.906 439.244 306.088 438.601Z"/>
	<path fill="#E9E9E9" d="M299.872 424.7C302.989 424.507 306.406 424.071 309.509 424.324C311.279 424.468 312.538 424.882 313.728 426.276C314.156 427.619 314.22 428.147 313.771 429.491C311.776 431.465 309.021 431.372 306.382 431.598C302.91 431.967 296.587 433.356 293.446 432.059C292.597 430.9 292.212 430.112 291.817 428.731C291.977 427.942 291.926 427.511 292.522 426.903C294.401 424.985 297.36 424.95 299.872 424.7Z"/>
	<path fill="#E9E9E9" d="M315.324 471.041C320.451 472.438 328.393 474.607 333.656 473.566C336.88 472.929 339.933 471.65 343.25 471.647C344.464 472.292 344.567 472.329 345.185 473.547C345.119 475.578 344.96 475.818 343.898 477.432C338.275 480.481 331.363 480.355 325.166 479.611C321.635 479.186 315.031 478.307 312.936 475.225C312.535 474.634 312.498 474.162 312.753 473.483C313.2 472.295 314.319 471.678 315.324 471.041Z"/>
	<path d="M341.07 553.971C341.102 553.985 341.136 553.994 341.165 554.013C342.618 554.962 347.276 571.122 348.211 573.949Q367.491 630.838 382.158 689.086Q387.795 711.235 393.126 733.459C394.592 739.67 394.948 745.954 397.229 751.955C393.264 752.165 389.379 752.349 385.414 752.077C381.55 747.445 375.551 745.643 370.121 743.404C361.63 740.519 353.185 735.9 344.928 732.275C344.708 722.072 342.148 711.474 340.417 701.405C333.557 661.495 326.31 620.986 312.298 582.863C310.403 577.709 308.434 570.818 304.857 566.686C318.328 564.576 329.583 561.611 341.07 553.971Z"/>
	<path d="M456.292 393.32C466.103 397.76 478.836 403.229 486.571 410.723C484.348 415.147 482.712 419.911 480.803 424.48C478.217 430.671 475.339 436.766 472.663 442.924Q461.194 469.55 448.201 495.467Q433.536 524.871 416.907 553.21C412.106 561.56 406.686 569.663 402.2 578.169C399.58 575.33 397.526 572.051 395.565 568.741C388.367 555.2 378.683 542.277 367.906 531.353C364.031 527.426 359.741 523.941 355.844 520.022C378.279 500.492 391.99 479.504 409.506 456.079L456.292 393.32Z"/>
	<path d="M590.548 739.751L591.424 740.018C592.438 741.999 592.625 919.238 592.823 940.008C584.971 939.695 569.963 940.794 563.171 939.124C562.965 938.871 562.682 938.664 562.553 938.365C562.009 937.109 563.262 922.192 563.344 919.842C564.259 893.533 565.507 867.322 564.327 840.995C561.819 820.555 551.408 802.645 533.478 791.947C525.84 787.39 517.406 784.259 509.099 781.166C498.98 777.397 488.576 773.646 478.05 771.157C469.89 769.228 453 766.356 447.062 760.823C446.794 759.083 445.388 751.981 446.044 750.747C451.85 748.927 472.295 747.705 479.224 747.086Q516.548 743.427 553.99 741.28C566.171 740.576 578.372 740.485 590.548 739.751Z"/>
	<path d="M263.781 536.87C266.089 539.547 268.064 542.886 270.052 545.827C278.256 557.958 284.856 571.35 290.524 584.85C293.45 591.818 295.982 598.894 299.186 605.748C294.476 599.731 280.011 576.515 273.141 575.28C271.655 575.013 271.326 575.244 270.103 575.967C269.023 578.07 269.826 579.523 270.962 581.465C273.77 586.265 278.615 590.263 282.037 594.708Q287.986 602.447 293.245 610.671Q298.503 618.895 303.031 627.543C311.481 643.408 318.392 709.834 320.991 730.284C332.849 734.522 343.987 740.895 355.454 746.085C360.968 748.581 372.614 752.033 376.957 755.409C377.743 756.02 377.608 757.015 377.738 757.97C375.614 769.31 373.454 780.374 370.711 791.594C362.349 790.336 353.831 789.955 345.442 788.818C328.352 786.5 302.017 780.368 287.713 770.77C284.02 768.292 280.515 765.606 277.915 761.944C274.019 756.456 271.604 750.095 269.069 743.909Q265.552 735.215 262.448 726.366Q259.345 717.516 256.662 708.53Q253.979 699.544 251.722 690.441Q249.466 681.339 247.641 672.14C242.592 647.204 235.927 600.193 243.11 576.308C247.391 562.076 255.618 549.166 263.781 536.87Z"/>
	<path d="M554.607 127.272C562.49 127.553 587.765 125.881 593.352 127.767C593.881 130.508 593.564 133.373 593.444 136.149C587.538 138.28 582.332 141.795 575.973 142.688C566.195 144.062 551.175 143.301 541 143.39L425.567 144.272C410.573 144.465 393.278 143.623 378.574 144.786C375.83 145.003 372.163 145.342 369.991 147.095C369.119 149.542 368.993 152.014 368.984 154.59L370.106 371.946L370.423 448.244C370.367 461.738 368.587 478.709 370.55 491.762C366.957 497.931 361.293 504.52 355.235 508.366C354.265 498.951 357.65 492.442 358.898 483.479C361.478 464.946 354.158 452.232 354.07 435.405L353.202 277.746L352.546 204.845C352.433 191.978 351.962 179.144 352.279 166.277C352.386 161.908 352.988 150.155 349.578 146.808C348.321 145.576 345.826 145.251 344.151 145.129C335.66 144.51 326.954 144.841 318.436 144.864L266.682 145.388L155.885 147.172C141.902 147.439 127.884 147.255 113.91 147.692C109.501 147.83 105.985 148.827 102.972 152.221C100.909 154.545 100.053 157.479 99.7596 160.521C99.1531 166.806 99.9105 173.517 99.9582 179.844L100.099 222.705L100.462 292.741C100.499 306.354 99.9755 320.249 100.692 333.823C100.323 340.702 100.664 347.743 100.691 354.638L101.206 402.656C101.338 427.638 101.141 651.322 103.291 655.862C107.164 664.038 138.784 657.026 147.28 660.501C149.961 663.432 150.195 670.46 150.934 674.346C142.213 674.471 87.404 675.446 84.323 674.278L84.5574 673.245L84.1551 673.471C82.6872 653.902 83.6809 633.569 83.8608 613.939L84.2873 530.832L84.8899 315.707Q85.8984 256.764 85.5055 197.814C85.5082 175.184 86.1037 152.374 84.9335 129.778L406.159 128.455L501.05 127.705C518.854 127.59 536.836 128.109 554.607 127.272Z"/>
	<path d="M898.789 124.799C898.924 124.77 899.057 124.699 899.195 124.711C905.046 125.212 911.128 124.811 917.06 124.716Q930.256 124.506 943.454 124.554C943.69 145.913 943.036 167.224 942.818 188.573Q942.668 244.159 941.785 299.739L940.844 459.834L940.416 556.024L940.255 591.476C940.221 597.454 940.762 603.664 940.068 609.608C939.541 614.121 937.062 618.871 935.612 623.178C933.553 629.288 931.7 635.523 929.946 641.728C926.494 653.943 924.589 666.193 921.828 678.522C909.751 677.842 897.405 678.377 885.295 678.293L800.865 678.106L579.772 677.491C579.582 672.813 579.553 668.115 579.452 663.434C586.96 663.313 594.449 662.865 601.962 662.819C611.367 662.762 624.406 663.908 633.349 661.753C635.032 659.982 635.085 656.92 635.182 654.557C635.711 641.605 635.082 628.474 635.097 615.5L634.649 517.914L634.308 284.987Q634.411 267.303 634.007 249.623C633.883 242.351 632.639 233.223 634.348 226.199C638.031 224.889 645.716 225.879 649.662 226.128C649.122 251.301 649.638 276.555 649.598 301.74L649.537 329.263C649.535 334.227 649.207 339.453 649.76 344.374C649.534 347.339 649.859 350.34 649.854 353.315L649.764 375.968L649.787 439.502Q649.608 545.61 650.604 651.708C650.637 654.009 650.366 658.922 652.044 660.565C658.938 662.664 672.161 661.512 679.67 661.504L717.481 661.535L878.35 661.954Q894.92 662.09 911.486 662.448C914.634 662.515 917.907 663.194 921.007 663.076C921.876 663.043 922.537 662.786 923.327 662.451C924.599 660.857 924.513 659.785 924.609 657.777C925.086 647.739 924.889 637.603 924.928 627.552L925.046 574.668Q925.841 506.877 925.499 439.082C925.453 341.119 927.042 243.131 926.243 145.17C925.191 143.898 924.009 142.72 922.874 141.521C916.872 140.765 910.347 141.357 904.27 141.404L872.754 141.51L738.25 142.386L697.617 142.567C690.362 142.571 682.476 143.012 675.296 142.103C668.369 141.227 661.618 137.554 654.934 135.525C655.201 132.562 655.312 129.588 655.452 126.617C674.183 126.061 693.124 126.633 711.882 126.471L820.501 125.442C846.492 125.413 872.859 126.324 898.789 124.799Z"/>
	<path d="M598.703 685.752L828.039 686.438L889.342 686.567C899.607 686.563 910.778 687.426 920.931 685.963C918.556 703.215 915.566 720.28 913.678 737.628C909.589 775.194 908.372 812.407 908.497 850.17C901.092 849.491 893.764 848.124 886.378 847.272Q875.133 846.079 863.828 845.859C832.315 844.968 780.105 846.38 756.184 869.339C749.932 875.338 743.384 885.673 743.391 894.576C743.394 899.318 745.662 905.823 749.138 909.165C757.142 916.863 773.83 915.204 784.268 915.182C784.982 920.824 786.014 936.224 784.364 941.226C777.317 942.738 768.068 941.547 760.795 941.429L724.385 941.003C716.398 940.885 708.336 940.465 700.358 940.798C692.61 940.286 684.741 940.567 676.975 940.551C660.243 940.519 643.409 940.719 626.691 939.886C625.714 923.751 626.28 907.185 626.222 890.999L625.913 795.597C625.841 776.95 626.212 758.215 625.25 739.587C683.962 741.37 738.555 742.061 796.515 753.968C804.383 755.585 812.474 756.994 820.222 759.088C825.158 760.423 829.905 762.533 834.776 764.099C837.298 764.91 840.579 765.785 842.996 764.183C844.394 763.257 845.031 761.682 845.221 760.08C845.842 754.859 843.496 749.4 840.172 745.491C835.423 739.908 828.34 735.918 821.661 733.126C810.305 728.377 797.679 725.731 785.677 723.149Q764.599 718.547 743.251 715.427Q721.904 712.306 700.39 710.684Q662.446 708.073 624.413 708.175C611.959 708.112 599.444 708.109 586.996 708.498C579.704 708.725 572.132 709.897 564.872 709.28L564.154 709.213L563.951 700C567.267 700.05 570.476 699.819 573.774 699.488C576.092 697.892 577.81 696.245 579.539 694.02L579.771 686.342Q589.233 685.911 598.703 685.752Z"/>
	<path d="M522.327 151.646C527.155 152.088 531.917 151.751 536.748 151.7C545.491 151.606 554.395 151.545 563.128 151.963C556.368 156.566 549.784 161.977 544.635 168.349C540.41 173.576 528.3 194.817 529.628 201.106C530.407 204.793 535.337 205.88 538.503 205.945C548.235 206.145 558.283 205.734 568.036 205.481C571.38 205.394 575.937 204.548 579.122 205.308C584.502 206.591 582.103 219.696 593.767 224.843C602.018 228.483 620.247 223.803 625.393 227.409C625.531 228.011 625.594 228.205 625.644 228.897C626.284 237.696 625.48 247.104 625.513 255.976L625.902 315.27L626.095 493.234L626.672 574.267C626.648 583.124 627.279 592.392 626.757 601.206C626.686 602.408 626.738 603.463 625.901 604.346C624.721 603.804 623.644 603.183 622.525 602.528C615.947 598.679 608.503 595.807 601.572 592.599C544.419 566.145 477.176 555.356 415.553 571.484C441.005 528.76 464.961 484.565 483.261 438.248C485.115 437.192 486.816 436.092 488.381 434.627C492.3 430.959 495.804 426.667 499.354 422.64C508.131 412.685 516.481 402.367 525.202 392.357Q544.496 370.495 563.205 348.13C568.263 342.168 573.975 336.593 578.593 330.285C580.35 327.885 581.691 325.506 581.809 322.486L580.508 321.579C573.678 323.341 563.992 336.365 559.333 341.791C546.387 357.262 532.576 371.998 519.481 387.333C509.722 398.761 500.943 411.828 489.659 421.793C491.513 417.173 493.527 412.527 494.732 407.689C494.252 405.714 493.568 403.804 492.917 401.88Q495.372 399.401 497.74 396.838C505.991 387.81 512.177 377.132 511.671 364.635C517.281 363.436 525.736 362.809 530.453 359.625C530.906 358.923 531.203 358.394 531.298 357.542C531.512 355.613 500.976 269.21 500.064 268.203C498.704 266.701 495.867 266.018 493.917 266.204C486.332 266.93 477.939 270.237 470.52 272.208C464.918 273.697 458.907 274.667 453.486 276.694C451.062 277.601 447.664 278.72 446.229 280.996C445.551 282.071 445.569 283.143 445.749 284.34C446.267 287.796 447.779 291.197 448.869 294.515C451.775 303.36 455.577 312.638 457.558 321.682C457.597 321.861 457.632 322.041 457.669 322.221C453.702 328.572 453.721 335.785 449.347 342.077C443.101 351.06 421.47 374.509 418.843 381.14C418.244 382.652 418.356 383.705 419.072 385.174C419.798 385.61 419.975 385.926 420.875 385.784C427.247 384.776 445.416 359.245 449.622 353.322C450.251 358.734 451.544 364.079 452.196 369.498C452.822 374.694 452.743 380.053 452.849 385.285C446.065 391.493 440.606 400.624 435.144 408.091C428.794 416.769 421.824 425.103 415.642 433.867Q403.724 451.086 390.976 467.699C387.571 472.155 384.23 477.224 380.272 481.151C378.407 476.652 379.477 423.499 379.408 413.44L378.469 252.75C378.337 219.513 379.123 185.987 377.588 152.795C388.535 151.954 399.919 152.669 410.924 152.567L487.096 152.032C498.559 151.97 510.958 152.918 522.327 151.646Z"/>
	<path fill="#E9E9E9" d="M559.303 475.86C561.106 475.748 562.56 475.733 564.003 476.968C564.386 478.586 564.226 478.931 563.761 480.469C561.903 480.657 560.611 480.747 558.992 479.752C558.431 478.234 558.831 477.317 559.303 475.86Z"/>
	<path fill="#E9E9E9" d="M474.793 514.026C476.475 513.975 478.294 513.928 479.561 515.255C480.168 515.891 480.52 516.607 480.559 517.473C480.663 519.718 479.539 520.754 478.077 522.225C476.544 522.045 475.009 521.9 473.839 520.769C472.902 519.862 472.481 518.854 472.567 517.546C472.663 516.069 473.82 515.006 474.793 514.026Z"/>
	<path fill="#E9E9E9" d="M583.129 541.976C584.981 542.132 586.974 542.344 588.137 544.003C588.852 545.024 589.05 546.037 588.761 547.243C588.388 548.802 587.339 549.542 586.117 550.394C584.831 550.396 583.591 550.47 582.465 549.731C581.426 549.05 580.765 547.955 580.72 546.705C580.646 544.664 581.767 543.326 583.129 541.976Z"/>
	<path fill="#E9E9E9" d="M567.747 227.254C568.704 227.519 569.748 228.055 570.462 228.761C571.466 229.754 571.55 230.542 571.664 231.887C569.901 235.399 522.638 285.664 519.024 288.535C517.272 288.228 516.317 287.993 514.952 286.826C514.644 286.091 514.34 285.709 514.47 284.882C514.617 283.946 514.933 283.365 515.499 282.626C522.406 273.612 531.205 265.537 538.946 257.213L557.231 237.769C560.528 234.276 563.764 229.961 567.747 227.254Z"/>
	<path fill="#E9E9E9" d="M429.538 197.042C430.271 197.007 431.081 196.922 431.809 197C439.691 197.844 433.677 218.74 439.817 226.71C444.793 233.17 452.444 235.373 460.253 235.161C463.264 235.079 466.796 234.649 469.768 235.209C471.27 235.492 473.099 236.433 473.924 237.739C474.395 238.484 474.09 238.781 473.888 239.565C469.117 244.305 463.148 242.176 457.399 242.948C452.248 243.64 448.632 243.272 443.956 246.329C432.869 253.576 436.469 269.563 434.196 280.684C433.749 280.992 433.253 281.363 432.748 281.564C431.706 281.98 430.281 281.931 429.263 281.47C424.683 279.393 427.509 260.853 423.111 252.595C416.641 240.447 404.009 245.602 394.473 242.24C392.953 241.705 391.999 241.055 391.305 239.549C391.413 238.67 391.321 238.104 391.907 237.389C394.648 234.043 401.891 234.799 405.911 234.495C437.691 232.089 423.212 204.579 429.538 197.042Z"/>
	<path d="M431.617 227.871C432.627 228.919 433.346 230.442 434.235 231.634C436.365 234.492 438.985 236.609 441.807 238.747C435.574 241.33 433.989 244.595 430.774 250.262C428.871 244.806 425.034 242.181 420.615 238.783C423.655 237.082 428.348 234.308 429.92 231.109C430.461 230.009 431.029 228.946 431.617 227.871Z"/>
	<path d="M274.493 153.252C279.718 154.501 289.882 153.474 295.513 153.412C311.433 153.237 327.484 152.812 343.394 153.207C344.343 168.771 343.659 184.639 343.946 200.251C344.919 253.045 344.228 305.868 344.935 358.669C345.197 378.212 345.127 397.682 346.172 417.213C344.245 409.474 342.264 403.832 337.887 397.108C339.498 396.136 341.237 395.28 341.944 393.418C342.396 392.227 342.374 391.3 341.798 390.158C341.04 388.652 338.927 388.212 337.452 387.723C336.259 384.586 334.887 382.064 332.06 380.085C330.268 378.83 327.621 377.639 325.404 377.509C318.264 377.093 311.204 379.217 304.273 380.582Q294.847 382.392 285.374 383.943C278.21 385.046 270.791 385.05 263.701 386.426C258.979 387.342 255.223 388.22 252.523 392.548C249.564 397.29 250.899 402.454 252.033 407.503C244.369 409.376 238.07 413.252 233.973 420.204C229.8 427.286 229.747 435.026 231.726 442.749C235.378 457.006 256.035 497.651 265.847 508.31C267.75 510.378 271.036 511.906 273.454 513.342C268.141 518.234 263.132 524.634 258.621 530.31C253.646 536.571 249.211 543.522 245.266 550.465C233.842 570.57 231.125 584.924 231.523 607.748C231.7 617.956 232.375 627.904 233.523 638.043Q234.255 644.785 235.214 651.498Q236.174 658.211 237.359 664.888Q238.544 671.565 239.954 678.199Q241.364 684.832 242.997 691.414Q244.63 697.996 246.485 704.519Q248.339 711.042 250.412 717.498Q252.486 723.955 254.776 730.338Q257.066 736.721 259.57 743.023C264.091 754.346 268.93 767.687 278.737 775.496C278.848 782.836 282.368 822.373 284.842 826.329C287.291 830.244 300.782 833.816 305.608 835.581C299.355 838.705 292.681 840.215 286.043 842.251C277.972 844.726 269.979 847.434 261.896 849.877C248.293 854.819 234.072 858.769 220.294 863.287C218.68 861.31 218.295 836.797 218.119 832.939Q216.851 801.712 213.711 770.617Q210.57 739.522 205.568 708.672C204.083 699.472 202.991 690.141 201.112 681.017C194.914 650.909 183.444 615.547 156.297 597.848C170.551 585.239 193.047 577.992 211.188 573.391C216.541 572.034 223.368 571.701 228.185 569.233C228.676 568.502 229.052 568.263 228.994 567.329C228.701 562.55 218.661 554.23 215.2 550.939C185.274 522.478 152.71 504.642 110.381 505.715C110.527 495.588 110.17 485.45 110.092 475.321L109.674 410.617L109.407 263.957L108.84 198.417C108.777 187.8 108.265 176.967 108.772 166.375C108.916 163.362 109.029 159.209 110.762 156.674C114.769 155.993 119.337 156.477 123.421 156.373L149.936 155.624Q190.305 154.494 230.689 154.192C245.182 153.97 260.064 154.417 274.493 153.252Z"/>
	<path fill="#E9E9E9" d="M184.429 474.676C184.806 474.803 185.272 474.944 185.613 475.14C186.718 475.777 186.911 476.146 187.348 477.266C187.011 478.967 186.262 479.674 185.099 480.856C183.5 479.935 182.519 479.354 181.978 477.568C182.498 476.075 183.214 475.571 184.429 474.676Z"/>
	<path fill="#E9E9E9" d="M230.626 188.011C232.623 188.002 234.854 187.994 236.302 189.642C237.145 190.601 237.334 191.461 237.194 192.702C237.024 194.224 235.817 195.359 234.736 196.3C233.407 196.479 231.846 196.473 230.663 195.744Q230.481 195.631 230.313 195.5Q230.145 195.368 229.993 195.218Q229.84 195.069 229.704 194.904Q229.569 194.738 229.452 194.559Q229.336 194.38 229.24 194.19Q229.143 193.999 229.068 193.799Q228.994 193.599 228.941 193.392Q228.889 193.185 228.859 192.973C228.607 191.039 229.491 189.468 230.626 188.011Z"/>
	<path fill="#E9E9E9" d="M282.746 221.77C283.655 221.717 285.025 221.845 285.817 222.342C286.851 222.989 287.561 223.749 287.687 225.009C287.826 226.4 286.97 228.022 286.155 229.099C282.936 233.347 279.023 237.34 275.572 241.425L244 278.146Q218.318 308.443 191.723 337.941C180.31 350.853 169.153 363.909 157.337 376.464C155.997 376.932 155.782 377.035 154.413 376.729C153.457 375.822 152.989 375.417 152.807 374.019C152.612 372.526 154.194 370.686 155.049 369.561C161.859 360.591 169.856 352.398 177.147 343.812Q201.151 315.053 225.717 286.771Q253.906 253.985 282.746 221.77Z"/>
	<path fill="#E9E9E9" d="M295.593 281.529C297.196 281.359 298.011 281.364 299.526 281.905C300.36 282.772 300.737 283.042 300.729 284.333C300.722 285.668 299.147 287.467 298.333 288.514C290.694 298.35 282.118 307.867 273.94 317.279Q253.405 341.148 232.376 364.584C209.702 390.177 187.793 416.385 164.805 441.721C163.198 441.8 162.539 441.665 161.098 440.949C160.295 439.81 160.002 439.544 160.278 438.068C160.686 435.887 163.552 432.712 164.969 430.999Q193.782 396.767 223.71 363.504C233.992 351.844 244.006 339.918 254.2 328.177L277.467 301.621C283.054 295.127 288.746 286.538 295.593 281.529Z"/>
	<path fill="#E9E9E9" d="M168.635 201.222C169.493 201.32 170.369 201.389 171.124 201.869C175.14 204.42 173.84 216.154 174.17 220.377Q174.531 225.128 175.985 229.666C181.741 247.314 201.446 239.748 208.327 244.448C209.446 245.212 209.517 245.399 209.667 246.642C207.168 250.675 196.913 250.781 192.472 251.931Q189.896 252.597 187.43 253.595Q184.964 254.592 182.649 255.904C174.126 260.754 171.792 271.608 171.152 280.612C170.918 283.917 171.06 288.046 170.041 291.194C169.461 292.987 168.265 293.515 166.695 294.266C165.516 293.574 164.635 293.012 164.085 291.696C163.277 289.763 163.45 286.603 163.368 284.504C163.02 275.644 162.23 267.207 157.145 259.645C149.488 248.258 130.798 252.02 125.77 245.945C125.224 245.285 125.412 245.109 125.473 244.336C130.087 238.899 148.447 243.742 155.999 237.483C166.389 228.872 164.007 218.866 165.421 207.305C165.77 204.46 166.401 203.041 168.635 201.222Z"/>
	<path d="M168.982 233.866C172.822 239.627 176.733 243.52 182.969 246.666C175.082 249.722 170.96 255.544 167.194 262.786C166.895 261.905 166.544 261.045 166.185 260.187C164.446 256.035 161.029 249.609 156.691 247.953C155.727 247.586 155.15 247.331 154.358 246.619C154.213 245.877 158.067 244.794 159.003 244.259C163.487 241.698 166.535 238.355 168.982 233.866Z"/>
	<path d="M819.052 149.879C822.491 150.995 830.28 150.176 834.22 150.189C852.97 150.251 871.722 149.766 890.472 149.642C899.518 149.582 908.94 148.955 917.915 150.025Q918.394 295.283 917.068 440.535L916.574 526.435C916.61 544.907 917.497 564.846 916.326 583.195C905.253 583.849 894.476 585.66 884.005 589.426C864.336 596.5 844.148 611.426 833.449 629.6C829.769 635.85 827.541 642.547 824.494 649.074C817.85 646.283 811.76 642.003 805.22 638.905C780.848 627.36 759.549 624.712 732.876 625.379C714.695 626.506 697.412 629.908 680.658 637.219C676.506 634.7 661.666 625.648 659.618 621.9C658.098 619.117 658.659 521.813 658.75 509.599L658.444 289.682L658.363 240.326C658.352 236.296 657.485 225.943 658.363 222.786C658.809 221.179 661.391 218.715 662.265 216.946C664.133 213.162 665.334 208.928 666.618 204.914C673.483 205.027 708.491 205.787 712.757 203.085C714.219 202.159 715.057 200.59 715.433 198.932C717.953 187.802 705.531 168.859 698.371 161.171C695.339 157.915 691.027 155.457 688.611 151.736C689.146 151.066 688.81 151.232 689.635 151.16C705.246 149.788 721.558 150.587 737.249 150.678C758.321 150.799 779.419 150.468 800.491 150.261C805.798 150.209 813.329 151.367 818.466 150.075C818.665 150.025 818.856 149.945 819.052 149.879Z"/>
	<path fill="#E9E9E9" d="M883.249 519.138C883.751 519.377 884.754 519.762 885.187 520.17C886.222 521.147 886.223 521.661 886.307 522.975C885.692 524.637 884.823 525.207 883.448 526.193L881.031 525.32C880.075 524.23 880.009 524.262 879.98 522.826C880.76 521.17 881.864 520.301 883.249 519.138Z"/>
	<path fill="#E9E9E9" d="M701.987 481.272C702.629 481.354 703.581 481.409 704.205 481.659C705.369 482.128 706.351 482.917 706.677 484.176C707.094 485.785 706.454 487.039 705.762 488.448C704.805 488.303 703.686 488.19 702.79 487.827C701.619 487.353 701.206 486.617 700.685 485.544C700.604 483.791 701.176 482.796 701.987 481.272Z"/>
	<path fill="#E9E9E9" d="M706.34 568.205C707.45 568.33 708.63 568.574 709.546 569.266C710.56 570.032 711.044 570.941 711.037 572.209C711.029 573.614 709.826 574.664 708.921 575.59C708.024 575.525 706.917 575.291 706.166 574.784C705.192 574.127 704.608 573.2 704.545 572.027C704.462 570.469 705.442 569.343 706.34 568.205Z"/>
	<path fill="#E9E9E9" d="M878.204 435.24C879.535 435.246 880.307 435.368 881.52 435.923C882.349 437.044 882.277 437.19 882.284 438.605C878.855 445.594 872.876 451.988 868.301 458.29C851.21 481.827 833.368 504.7 815.447 527.604C807.959 537.173 794.869 555.082 786.385 562.678C785.3 562.64 784.318 562.483 783.438 561.77C782.321 560.865 782.311 560.19 782.094 558.869C783.483 555.287 792.533 545.271 795.609 541.197Q826.034 501.108 856.956 461.4C863.908 452.575 871.308 444.115 878.204 435.24Z"/>
	<path fill="#E9E9E9" d="M842.21 298.372C842.591 298.525 843.177 298.742 843.505 298.969C844.594 299.722 844.6 300.25 844.829 301.456C843.025 308.965 738.399 432.851 726.863 440.457C726.503 440.342 726.067 440.233 725.771 439.985C724.726 439.109 724.726 438.618 724.789 437.398C727.939 432.009 732.799 427.073 736.799 422.264L760.265 394.079Q786.571 362.161 813.449 330.723C822.715 319.844 831.552 307.902 842.21 298.372Z"/>
	<path fill="#E9E9E9" d="M866.228 372.781C867.635 373.385 868.004 373.704 868.651 375.011C868.634 375.71 868.568 376.279 868.209 376.898C866.38 380.057 863.518 383.134 861.256 386.034L846.705 404.693Q818.524 441.07 789.302 476.616C774.797 494.142 760.111 511.928 744.864 528.815C744.17 528.512 743.569 528.117 742.928 527.72C742.605 526.31 742.603 525.68 743.193 524.335C746.072 517.781 754.155 508.92 758.616 503.164C763.87 496.385 768.861 489.4 774.196 482.684C781.786 473.129 789.723 463.842 797.399 454.352Q819.516 426.443 842.318 399.093C848.824 391.303 855.172 383.068 862.172 375.724C863.43 374.405 864.529 373.509 866.228 372.781Z"/>
	<path fill="#E9E9E9" d="M744.844 239.412L746.832 240.355C747.483 241.146 747.934 241.785 748.169 242.798C748.709 245.117 748.564 247.833 748.635 250.21C748.81 256.076 749.168 261.881 750.987 267.506C755.892 282.676 768.297 283.022 781.927 283.684C784.815 283.824 788.279 283.673 790.86 285.163C792.221 285.948 792.533 286.85 792.85 288.315C789.531 294.55 767.723 289.895 757.452 299.602C750.063 306.585 749.064 316.237 748.72 325.791C748.649 327.761 748.804 330.943 748.066 332.742C747.601 333.876 746.836 334.639 745.973 335.474C744.539 335.361 742.906 335.089 741.932 333.897C739.446 330.854 739.727 312.747 732.555 303.132C722.223 289.282 701.859 294.001 698.28 289.717C697.375 288.634 697.417 288.25 697.503 286.94C700.648 282.118 719.707 284.37 728.647 279.646C737.772 274.825 739.401 261.17 740.187 252.016C740.446 249.004 740.309 245.359 741.273 242.491C741.94 240.506 743.082 240.205 744.844 239.412Z"/>
	<path d="M743.855 272.898C745.252 274.357 746.198 276.618 747.485 278.263C750.977 282.73 755.111 285.706 759.58 289.088C753.362 293.247 747.725 297.322 745.211 304.801L744.254 307.648C740.963 299.54 734.584 293.521 727.455 288.744C735.426 283.43 739.896 282.593 743.855 272.898Z"/>
	<path d="M0 0L614.499 0L615.104 59.4408C615.235 72.3283 615.716 85.3268 614.828 98.1888C606.374 101.709 600.316 107.028 596.766 115.595Q596.168 117.027 595.655 118.491C571.005 117.744 546.062 118.669 521.398 119.171C504.282 119.519 487.134 119.366 470.011 119.527L244.322 120.519L141.049 121.007C122.757 121.073 104.043 120.275 85.797 121.374C83.5938 121.506 79.6292 121.551 77.9954 123.05C76.4172 124.498 76.0531 126.833 76.0862 128.864Q77.8356 326.208 75.4754 523.546L75.2407 636.904C75.2994 649.011 74.5316 661.276 75.0382 673.358C75.1584 676.223 75.3205 679.118 77.4191 681.275C77.8489 681.717 78.4009 682.101 78.8887 682.468C91.9486 683.542 105.381 682.999 118.492 683.118C129.651 683.219 141.148 684.227 152.26 683.063C154.68 693.69 155.707 705.247 157.003 716.086C159.742 738.982 161.779 761.819 163.757 784.789C166.664 818.548 170.786 852.423 172.324 886.278C173.107 903.525 171.889 921.164 173.377 938.33C148.596 938.37 123.821 937.726 99.0399 937.595C91.2322 937.554 77.2633 936.718 70.0059 937.544C69.0244 937.656 68.1525 938.073 67.432 938.763C66.6864 939.477 66.5011 940.243 66.2151 941.192C66.3916 942.854 66.8993 944.488 68.4377 945.42C70.3922 946.604 75.1 946.25 77.3705 946.301C88.9239 946.559 100.487 946.107 112.036 946.238Q201.404 947.418 290.779 947.55Q365.314 948.419 439.851 948.073C454.651 948.019 469.413 948.457 484.226 948.168C514.291 947.583 544.428 948.327 574.5 948.423L714.641 949.034L909.102 951.498C916.346 951.565 942.777 953.546 948.077 951.535C948.964 951.199 948.975 950.878 949.288 950.033C951.87 943.076 951.471 928.812 952.006 920.987C954.454 885.145 955.96 849.255 957.905 813.382Q962.167 746.218 965.563 679.005C966.797 657.468 968.441 635.986 969.203 614.416C969.387 609.219 970.549 600.897 968.192 596.317C967.59 595.148 966.831 594.058 966.087 592.976L962.125 591.534C957.984 592.515 953.35 593.254 950.9 597.105Q950.516 597.714 950.16 598.34L949.099 598.843C947.231 594.325 949.171 507.587 949.358 493.939L950.694 269.525C950.99 222.19 952.192 174.8 951.926 127.466C951.914 125.411 952.067 120.6 951.082 118.854C950.702 118.181 949.785 117.089 949.075 116.738C947.786 116.099 945.968 116.082 944.551 116.053C933.054 115.818 921.448 116.423 909.938 116.482Q864.964 116.307 820 117.294C788.149 117.79 756.284 117.459 724.432 117.823C700.687 118.095 676.644 119.26 652.921 118.494C649.189 109.042 643.074 102.659 633.771 98.5221Q633.296 98.3117 632.814 98.1203C633.415 90.7762 633.073 83.3131 633.025 75.9459L632.841 41.7176L632.663 13.037C632.631 8.77996 633.012 4.21105 632.5 0L1024 0L1024 1024L0 1024L0 0Z"/>
</svg>
