<?xml version="1.0" encoding="utf-8" ?>
<svg xmlns="http://www.w3.org/2000/svg" xmlns:xlink="http://www.w3.org/1999/xlink" width="1024" height="1024">
	<path d="M0 0L1024 0L1024 1024L0 1024L0 0Z"/>
	<path fill="#E9E9E9" d="M455.856 418.059C457.654 417.853 459.571 417.715 461.313 418.287C463.101 418.874 464.786 420.048 465.53 421.838C466.104 423.218 465.879 424.137 465.358 425.462C464.634 426.123 464.404 426.484 463.426 426.749C461.238 427.342 459.37 426.2 457.508 425.202C455.633 426.504 453.958 429.181 451.456 428.729C450.422 428.543 449.573 427.614 449.196 426.678C448.533 425.032 448.912 423.032 449.788 421.536C451.141 419.226 453.474 418.773 455.856 418.059Z"/>
	<path fill="#E9E9E9" d="M535.411 139.541C535.897 139.666 536.257 139.728 536.71 139.997C537.519 140.477 537.945 141.311 538.364 142.111C542.124 149.299 544.975 157.175 548.314 164.587C550.588 169.634 554.86 177.047 556.228 182.188C556.672 183.856 555.937 184.716 555.247 186.177C554.556 185.771 553.934 185.363 553.355 184.799C550.653 182.166 534.414 145.068 534.329 140.659L535.411 139.541Z"/>
	<path fill="#E9E9E9" d="M492.778 419.019C493.944 419.119 494.678 419.287 495.726 419.812C498.516 423.135 505.309 440.457 505.108 444.75C505.036 446.3 504.266 446.658 503.222 447.629C502.341 447.519 501.322 447.464 500.476 447.207C499.39 446.878 499.062 446.776 498.535 445.805C496.453 441.961 489.655 423.771 490.876 420.385C491.188 419.518 492.003 419.405 492.778 419.019Z"/>
	<path fill="#E9E9E9" d="M453.153 399.647C454.57 399.552 455.993 399.472 457.414 399.513C460.245 399.596 465.477 400.336 467.363 402.647C467.908 403.316 467.56 403.775 467.408 404.548C464.834 407.632 454.016 405.889 448.217 407.917L447.609 408.135C445.074 409.67 441.894 412.034 438.847 412.026C437.608 412.023 437.072 411.863 436.21 410.999C436.027 409.445 436.494 408.383 437.433 407.183C441.119 402.477 447.47 400.44 453.153 399.647Z"/>
	<path fill="#E9E9E9" d="M832.058 292.885C832.378 292.964 832.725 292.971 833.018 293.121C834.017 293.633 834.416 294.456 834.734 295.433C833.393 296.982 795.049 319.147 790.344 321.631C790.142 321.601 789.929 321.612 789.738 321.541C788.578 321.108 788.351 320.545 787.847 319.521L788.295 318.263C792.235 315.035 797.549 312.785 801.958 310.189C811.784 304.405 821.712 297.675 832.058 292.885Z"/>
	<path fill="#E9E9E9" d="M295.844 735.298C297.011 735.662 297.712 735.954 298.637 736.761C298.277 740.51 286.351 755.689 283.59 760.198C278.054 769.238 274.151 778.982 268.942 788.111C268.511 788.049 267.877 787.979 267.483 787.819C266.214 787.303 266.091 786.87 265.677 785.69C266.639 776.088 288.69 742.456 295.844 735.298Z"/>
	<path fill="#E9E9E9" d="M238.373 394.335C239.255 394.371 240.138 394.386 240.992 394.631C244.452 395.623 247.856 397.221 251.274 398.409L277.323 407.334C286.065 410.313 307.89 416.588 314.739 420.421C315.596 421.735 315.437 422.186 315.412 423.718C308.181 422.502 300.328 418.684 293.295 416.358L256.562 403.848C250.818 401.875 244.795 400.302 239.25 397.838C238.354 396.517 238.463 395.9 238.373 394.335Z"/>
	<path fill="#E9E9E9" d="M507.312 161.665C508.212 161.782 508.827 161.96 509.67 162.261C515.815 172.655 520.521 184.379 525.587 195.34C529.911 204.695 535.188 214.369 538.323 224.188C538.753 225.533 538.79 226.497 538.544 227.877C537.161 227.548 536.056 227.541 535.158 226.279C532.77 222.921 528.583 211.494 526.495 206.975Q520.384 193.704 514.088 180.52C511.778 175.685 509.084 170.775 507.156 165.783C506.497 164.075 506.806 163.316 507.312 161.665Z"/>
	<path fill="#E9E9E9" d="M715.885 60.064C716.338 60.2104 717.081 60.4328 717.485 60.6468C718.126 60.9859 718.767 61.369 718.886 62.1077C719.645 66.7958 715.764 93.2903 715.1 100.653C714.274 109.806 714.159 119.134 713.039 128.241C712.83 129.938 712.565 130.921 711.51 132.272C710.716 132.055 709.559 131.848 709.139 131.097C706.819 126.956 713.873 67.1897 715.885 60.064Z"/>
	<path fill="#E9E9E9" d="M749.006 80.255C749.37 80.2595 749.707 80.2554 750.074 80.3052C751.488 80.4971 751.613 80.5121 752.443 81.5956C752.575 86.0248 744.918 113.121 743.488 119.087Q739.605 135.756 736.655 152.616C735.325 152.397 734.418 152.277 733.256 151.542C731.611 145.318 745.923 90.6762 749.006 80.255Z"/>
	<path fill="#E9E9E9" d="M708.733 677.408C712.983 679.355 717.062 681.762 721.262 683.831Q736.758 691.293 752.162 698.944C765.878 705.699 780.044 711.895 793.25 719.615C793.905 720.917 793.724 720.928 793.288 722.345L792.752 722.155C784.916 719.437 711.112 683.193 707.898 680.072C707.695 678.614 707.878 678.638 708.733 677.408Z"/>
	<path fill="#E9E9E9" d="M479.875 165.661L481.067 166.128C484.334 169.916 486.731 176.115 489.06 180.596C496.311 194.548 503.138 208.712 510.331 222.694L522.873 247.131C524.506 250.324 526.872 253.938 528.018 257.289C528.583 258.94 528.089 259.69 527.436 261.165C526.976 261.081 526.596 261.039 526.161 260.828C523.149 259.361 482.511 178.352 479.525 170.034C478.833 168.104 479.04 167.537 479.875 165.661Z"/>
	<path fill="#E9E9E9" d="M150.819 423.996C157.46 424.383 164.031 425.529 170.628 426.34C187.509 428.416 204.325 430.903 221.191 433.084Q254.687 437.246 288.134 441.782C293.294 442.444 309.275 443.544 312.984 445.17C313.95 446.474 313.704 446.6 313.49 448.238C291.243 446.107 268.965 442.342 246.784 439.49L188.008 431.589C177.511 430.238 166.852 429.43 156.409 427.801C154.749 427.542 152.346 427.355 151.101 426.108C150.54 425.546 150.803 424.73 150.819 423.996Z"/>
	<path fill="#E9E9E9" d="M802.633 401.705C809.529 402.405 825.382 409.315 833.005 412.073Q864.656 423.57 896.508 434.498C903.877 437.003 911.273 439.725 918.677 442.071C921.569 442.987 924.726 442.894 927.25 444.752C927.864 446.224 927.619 446.504 927.233 448.004C926.696 447.932 926.158 447.866 925.626 447.766C913.815 445.557 900.828 440.372 889.468 436.307L851.944 423.125L821.489 412.151C815.976 410.225 810.095 408.653 804.741 406.399C803.777 405.993 802.962 405.455 802.417 404.536C801.973 403.786 802.471 402.538 802.633 401.705Z"/>
	<path fill="#E9E9E9" d="M351.587 88.2063C351.793 88.2257 352 88.2326 352.204 88.2643C357.178 89.0371 424.241 171.069 432.048 180.428C434.985 183.95 443.72 192.725 445.478 196.004C446.208 197.368 445.654 198.429 445.301 199.798C445.161 199.765 444.067 199.518 443.883 199.444C439.947 197.852 423.827 176.994 420.092 172.355Q403.417 151.608 386.042 131.445C381.505 126.127 352.288 93.3358 351.283 90.8987C350.786 89.6941 351.125 89.3526 351.587 88.2063Z"/>
	<path fill="#E9E9E9" d="M535.821 62.1722C536.554 62.3022 537.062 62.4955 537.742 62.7817C539.635 65.5052 540.479 69.5975 541.677 72.7445C545.638 83.1441 549.025 93.8094 552.703 104.317Q563.222 133.637 573.115 163.174C576.245 172.488 582.849 187.751 584.595 196.616C584.859 197.959 584.277 198.7 583.737 199.9C583.157 199.688 582.626 199.527 582.099 199.18C580.975 198.442 580.574 196.843 580.134 195.65C569.483 166.729 559.888 137.356 549.693 108.262C545.789 97.1197 541.639 86.0463 537.98 74.8225C537.003 71.8237 535.45 68.5093 534.829 65.4688C534.499 63.854 534.98 63.4888 535.821 62.1722Z"/>
	<path fill="#E9E9E9" d="M931.584 204.378C931.847 204.41 932.12 204.396 932.374 204.474C933.482 204.817 933.694 205.234 934.062 206.208C933.734 207.121 933.461 207.419 932.677 208.031C928.294 211.448 922.699 214.114 917.84 216.789L896.076 228.891C866.652 245.33 837.253 261.733 807.515 277.597C806.668 277.185 806.058 276.97 805.527 276.148C805.086 275.465 805.386 275.086 805.548 274.347C805.994 273.83 806.364 273.377 806.947 273.003C811.216 270.264 816.286 268.198 820.764 265.731L858.713 244.944C883.159 231.729 907.056 217.419 931.584 204.378Z"/>
	<path fill="#E9E9E9" d="M311.625 572.456C311.932 572.439 312.239 572.385 312.546 572.406C313.807 572.492 314.01 572.945 314.707 573.87L314.45 574.944C311.295 577.48 299.555 581.2 295.22 582.926L254.857 599.124Q209.488 617.073 164.749 636.54C164.713 636.546 164.678 636.558 164.642 636.557C163.271 636.541 162.959 636.662 161.946 635.792L162.224 634.535C169.089 627.218 292.57 580.594 311.625 572.456Z"/>
	<path fill="#E9E9E9" d="M790.056 430.307C791.033 430.262 791.772 430.258 792.703 430.614C802.15 434.223 811.445 438.736 820.78 442.675Q859.221 458.958 897.491 475.638C908.828 480.561 949.391 496.147 955.892 501.874C956.368 503.197 956.206 503.16 955.605 504.457C948.45 503.361 930.649 493.978 922.525 490.572L804.435 440.007C801.212 438.594 797.792 437.649 794.574 436.221C792.893 435.475 791.436 434.675 790.029 433.484C789.467 432.064 789.672 431.814 790.056 430.307Z"/>
	<path fill="#E9E9E9" d="M445.114 236.601C449.01 236.288 454.006 237.355 457.507 239.102C462.329 241.509 465.457 245.656 467.022 250.767C468.604 255.934 468.533 262.217 465.791 266.996C463.151 271.597 459.398 272.716 454.638 274.055C449.836 274.005 445.091 273.751 440.731 271.482C435.807 268.919 432.282 264.015 430.868 258.702C429.649 254.124 429.872 248.967 432.32 244.821C435.169 239.996 439.881 237.815 445.114 236.601Z"/>
	<path d="M446.572 243.019C448.823 242.886 451.682 243.494 453.781 244.341C457.05 245.66 459.787 248.398 461.146 251.645C462.429 254.711 462.807 258.369 461.398 261.463C459.792 264.991 456.716 266.262 453.335 267.623C449.781 267.525 446.484 267.398 443.298 265.594C440.205 263.843 437.921 261.083 437.023 257.621C436.251 254.646 436.506 251.411 438.114 248.749C440.036 245.567 443.063 243.893 446.572 243.019Z"/>
	<path fill="#E9E9E9" d="M619.529 177.078C623.746 176.511 628.65 178.227 631.984 180.777C636.361 184.123 638.779 189.128 639.536 194.504C640.542 201.641 638.957 209.73 634.511 215.464C630.818 220.226 626.448 222.269 620.623 222.896C616.588 222.888 613.534 222.378 610.032 220.133C605.39 217.157 602.487 212.235 601.32 206.915C599.794 199.963 601.108 191.98 605.099 186.041C608.555 180.898 613.655 178.354 619.529 177.078Z"/>
	<path d="M620.753 183.556C622.805 183.344 625.46 183.902 627.244 184.961C630.318 186.787 632.049 190.083 632.827 193.476C634.141 199.204 632.964 205.714 629.75 210.638C627.421 214.205 624.82 215.889 620.681 216.693C618.482 216.614 616.685 216.326 614.709 215.296C611.223 213.477 608.993 210.146 607.916 206.436C606.437 201.341 606.867 195.624 609.591 191.019C612.418 186.241 615.637 184.773 620.753 183.556Z"/>
	<path fill="#E9E9E9" d="M469.973 450.363C474.344 450.287 481.506 453.801 486.137 455.008C493.2 456.849 501.629 457.883 508.901 457.995C512.671 458.054 521.858 456.076 524.676 457.925C524.845 458.485 524.886 458.501 524.888 459.181C524.903 463.286 514.021 478.106 510.701 480.93C504.851 485.182 499.188 488.047 491.747 487.929C483.979 487.807 477.16 484.306 471.813 478.84C468.506 475.459 460.794 466.446 461.557 461.474C462.096 457.964 467.407 452.763 469.973 450.363Z"/>
	<path d="M471.905 458.346C481.88 461.491 498.68 466.518 508.899 464.615C510.128 464.386 511.082 464.57 512.07 465.394C512.67 465.895 512.493 466.21 512.536 466.929C511.202 470.391 507.991 473.144 505.391 475.696C504.023 476.819 502.514 478.017 500.979 478.911C497.083 481.179 492.57 481.686 488.242 480.492C479.008 477.944 473.465 470.544 468.835 462.724C469.948 461.333 470.907 459.821 471.905 458.346Z"/>
	<path fill="#E9E9E9" d="M113.606 246.584C120.823 246.015 126.877 246.84 133.046 250.961C138.929 254.892 142.583 261.061 143.849 267.953C145.124 274.898 143.859 283.285 139.579 289.043C135.382 294.688 128.794 297.341 122.063 298.366C114.394 299.088 107.93 298.882 101.164 294.727C95.6816 291.362 92.0754 285.715 90.6098 279.513Q90.459 278.885 90.3397 278.251Q90.2205 277.616 90.1332 276.977Q90.0459 276.337 89.9907 275.694Q89.9356 275.05 89.9127 274.405Q89.8898 273.76 89.8992 273.115Q89.9086 272.469 89.9503 271.825Q89.9921 271.181 90.066 270.539Q90.1399 269.898 90.2459 269.261Q90.3518 268.624 90.4895 267.993Q90.6272 267.363 90.7963 266.74Q90.9653 266.117 91.1654 265.503Q91.3655 264.889 91.596 264.286Q91.8266 263.683 92.087 263.092Q92.3475 262.501 92.6372 261.924Q92.9268 261.348 93.2451 260.786Q93.5633 260.224 93.9092 259.679C98.4929 252.494 105.503 248.514 113.606 246.584Z"/>
	<path d="M113.811 253.543C118.778 253.317 122.606 253.286 127.058 255.873C131.648 258.539 135.229 263.151 136.42 268.345C137.583 273.419 136.85 279.265 134.004 283.679C130.81 288.633 125.683 290.72 120.138 291.834L119.202 291.98C115.108 292.645 111.154 291.987 107.38 290.234C102.85 288.13 99.4696 284.529 97.8072 279.804Q97.6483 279.366 97.5118 278.921Q97.3753 278.476 97.2615 278.024Q97.1477 277.573 97.057 277.116Q96.9663 276.66 96.8988 276.199Q96.8313 275.738 96.7872 275.275Q96.7432 274.811 96.7227 274.346Q96.7022 273.881 96.7053 273.415Q96.7084 272.949 96.7351 272.485Q96.7618 272.02 96.812 271.557Q96.8622 271.094 96.9358 270.634Q97.0094 270.174 97.1062 269.719Q97.203 269.263 97.3228 268.814Q97.4426 268.364 97.585 267.92Q97.7274 267.477 97.8921 267.041Q98.0568 266.606 98.2434 266.179Q98.4299 265.753 98.6379 265.336C101.896 258.652 107.19 255.934 113.811 253.543Z"/>
	<path fill="#E9E9E9" d="M553.065 260.638C560.511 259.738 567.734 261.12 573.985 265.36C580.181 269.563 584.67 276.211 585.96 283.606C587.293 291.246 585.523 299.691 580.919 305.99C576.567 311.945 571.224 314.07 564.241 315.231C556.695 315.815 548.925 314.663 542.56 310.37C536.319 306.161 532.302 299.943 530.9 292.56C529.461 284.983 530.45 276.337 535.045 269.977C539.414 263.928 546.073 261.864 553.065 260.638Z"/>
	<path d="M553.042 267.61C557.998 266.841 562.954 267.407 567.464 269.671C572.998 272.449 577.09 277.221 578.825 283.178C580.456 288.777 579.763 295.066 576.753 300.087C573.599 305.348 569.223 307.577 563.487 308.959C557.371 309.225 551.594 308.45 546.276 305.193C541.472 302.25 538.833 297.699 537.526 292.309C536.177 286.744 536.469 280.275 539.588 275.324C542.806 270.219 547.523 268.847 553.042 267.61Z"/>
	<path fill="#E9E9E9" d="M231.737 458.452C232.809 458.416 234.455 458.221 235.332 458.972C241.282 464.064 243.774 485.03 253.33 493.367C256.879 496.463 261.053 497.696 265.575 498.549C292.25 503.578 305.963 475.558 316.292 474.761C317.437 475.184 318.4 475.618 318.959 476.81C319.58 478.135 319.296 479.369 318.598 480.59C316.973 483.434 313.638 486.105 311.221 488.378C304.645 494.563 290.762 506.375 288.727 514.891L288.568 515.584C292.433 528.477 310.662 530.997 321.842 534.258C324.104 534.918 327.49 535.596 329.38 537.027C330.485 537.863 330.64 538.515 330.915 539.822C330.577 540.979 330.206 541.747 329.131 542.406C328.107 543.034 326.755 543.319 325.562 543.228C321.826 542.943 309.965 539.38 305.1 538.398C300.39 537.694 295.514 537.308 290.761 537.763Q289.554 537.874 288.358 538.062Q287.161 538.251 285.979 538.517Q284.797 538.783 283.634 539.125Q282.472 539.467 281.335 539.884Q280.197 540.301 279.089 540.791Q277.98 541.28 276.906 541.841Q275.832 542.402 274.797 543.031Q273.761 543.66 272.769 544.355C253.752 557.753 262.997 573.212 256.157 580.058C255.232 580.984 254.305 581.455 252.98 581.327C247.013 580.753 253.208 552.314 246.716 544.936C239.53 536.769 230.477 535.11 220.335 537.537C217.116 538.307 213.541 539.513 210.203 539.165C208.564 538.994 207.833 538.474 206.829 537.216C206.767 535.692 206.912 535.222 208.207 534.208C210.397 532.492 213.326 531.52 215.844 530.368C221.935 527.582 227.753 523.66 232.189 518.596C246.991 501.697 239.774 489.668 232.554 471.744C231.502 469.133 229.739 465.624 229.699 462.776C229.672 460.879 230.5 459.789 231.737 458.452Z"/>
	<path d="M247.423 497.446C248.281 497.881 249.103 498.57 249.883 499.135C250.829 499.82 251.752 500.496 252.766 501.082C263.81 507.461 275.413 506.1 287.144 502.785C286.028 504.201 284.973 505.626 284.093 507.205C281.872 511.188 281.201 515.527 282.596 519.914C284.476 525.825 288.705 528.796 293.906 531.531Q292.454 531.493 291.003 531.552Q289.551 531.612 288.107 531.769Q286.663 531.926 285.233 532.18Q283.803 532.434 282.393 532.784Q280.983 533.133 279.6 533.577Q278.217 534.021 276.867 534.557Q275.517 535.094 274.206 535.719Q272.896 536.345 271.63 537.058C264.871 541.191 260.739 545.567 256.488 552.22C255.081 546.826 253.409 541.926 249.602 537.702C244.583 532.133 238.049 530.376 230.877 529.877C242.956 518.97 244.495 513.756 247.256 498.349L247.423 497.446Z"/>
	<path fill="#E9E9E9" d="M128.378 487.548C133.418 487.212 137.378 487.393 141.444 490.89C145.166 494.092 147.096 498.846 147.358 503.688C147.672 509.481 145.963 513.949 142.192 518.214C143.592 519.709 145.108 521.225 146.263 522.921C152.04 531.397 152.256 543.928 150.097 553.566C152.325 554.827 154.806 555.349 157.065 556.483C157.702 556.804 158.683 557.348 158.831 558.09C159.528 561.58 154.07 577.153 151.859 580.586C141.378 578.501 131.013 575.887 120.601 573.489C110.216 570.546 84.4958 568.029 77.2279 563.185C77.2216 557.782 77.6092 544.331 80.3056 539.862C83.1861 538.193 87.9137 539.346 91.0782 539.706C92.4688 529.176 97.1773 518.835 107.011 513.704C108.928 512.704 112.855 511.581 114.252 510.147C115.02 509.36 115.083 500.274 116.572 497.107C118.997 491.951 123.241 489.385 128.378 487.548Z"/>
	<path d="M132.621 493.296C135.37 493.625 137.286 495.309 139.374 496.958C139.807 498.294 140.291 499.665 140.588 501.038C141.647 505.932 139.795 509.355 137.184 513.272L132.321 511.324C129.265 510.169 124.085 510.638 121.646 508.824C121.137 507.983 120.855 507.336 120.84 506.353C120.782 502.632 123.019 498.217 125.604 495.63C127.742 493.49 129.706 493.387 132.621 493.296Z"/>
	<path d="M85.4248 545.971C91.3429 546.177 97.2828 547.96 103.049 549.246C119.467 552.908 135.371 557.263 151.445 562.249C150.175 565.579 149.102 568.867 148.179 572.309L147.924 572.747C144.657 573.222 131.846 569.086 128.098 568.136C113.34 564.395 98.2607 562.573 83.5443 558.594C84.4213 554.429 84.5896 550.162 85.4248 545.971Z"/>
	<path d="M120.314 516.257C120.346 516.254 120.378 516.247 120.411 516.248C126.941 516.367 132.834 517.362 137.74 522.1C143.582 527.742 144.568 536.526 144.801 544.228C144.877 546.774 145.056 549.752 143.242 551.7C138.109 551.665 131.749 549.117 126.698 547.77C116.853 545.121 106.783 543.186 96.8191 541.04C98.1684 534.785 100.38 528.413 104.758 523.602C108.895 519.055 114.229 516.626 120.314 516.257Z"/>
	<path fill="#E9E9E9" d="M840.778 129.794L842.755 129.971C843.513 130.505 844.017 130.713 844.468 131.55C846.549 135.409 839.666 169.136 837.814 175.063C840.853 176.44 844.101 177.28 847.295 178.22C850.637 175.076 855.036 172.639 858.864 170.093C867.978 164.031 877.203 158.189 886.424 152.297C891.196 149.248 895.735 145.545 900.687 142.819C902.146 142.016 903.824 141.115 905.522 141.019C906.536 140.961 906.126 140.886 906.975 141.627C906.944 141.833 906.936 142.045 906.883 142.246C906.366 144.188 904.396 145.774 902.863 146.939C896.289 151.933 888.458 155.858 881.462 160.314C871.143 166.887 861.162 174.03 850.59 180.194C860.594 184.873 872.711 188.24 881.508 194.995C882.704 195.914 884.151 197.161 884.194 198.793C884.229 200.111 883.652 201.323 882.691 202.206C876.718 207.692 845.223 200.118 836.013 199.268C835.836 206.687 836.081 214.112 835.897 221.533C834.715 228.36 836.399 242.813 830.969 247.839C829.87 248.857 829.575 248.715 828.198 248.553C826.508 247.426 825.577 246.094 824.704 244.261C820.267 234.938 816.202 214.579 813.487 203.797C806.163 206.87 784.352 222.849 777.419 220.278C776.185 219.821 775.929 219.549 775.324 218.478C777.417 211.161 798.003 192.035 803.638 183.45L804.076 182.775C800.647 172.308 784.374 145.924 785.182 136.994C785.59 136.382 785.642 135.908 786.436 135.797C792.045 135.013 815.303 159.159 820.485 163.516C824.375 155.285 835.395 136.132 840.778 129.794Z"/>
	<path d="M796.458 151.233C801.812 153.563 811.294 165.863 816.903 170.279C818.677 171.676 820.151 172.599 822.496 172.298C826.01 170.613 832.641 155.453 835.611 151.365L836.026 150.802C834.518 156.095 829.034 174.043 831.03 178.689C832.085 181.145 867.391 195.291 872.852 197.706C863.099 197.313 853.147 195.109 843.537 193.487C839.73 192.844 835.834 192.636 832.079 191.781C831.637 191.969 831.189 192.146 830.757 192.358C829.697 192.881 829.07 193.533 828.768 194.673C826.713 202.439 830.903 223.178 828.186 231.292C827.983 231.898 827.998 231.631 828.062 232.379C828.077 232.554 828.109 232.726 828.133 232.9C827.459 232.592 821.24 203.412 819.489 199.51C818.933 198.272 818.57 197.137 817.193 196.743C811.743 195.187 796.951 205.735 791.735 208.751C798.133 200.23 805.731 192.597 812.05 183.937C807.736 172.703 801.242 162.315 796.458 151.233Z"/>
	<path fill="#E9E9E9" d="M826.011 466.602C836.303 465.972 843.191 470.646 850.633 477.019L851.289 476.629C853.266 475.433 854.88 474.498 857.272 474.792C859.941 475.12 862.498 476.596 864.092 478.762Q864.351 479.107 864.574 479.477Q864.796 479.847 864.98 480.238Q865.164 480.629 865.308 481.036Q865.451 481.443 865.552 481.863Q865.654 482.282 865.713 482.71Q865.771 483.138 865.786 483.569Q865.801 484.001 865.772 484.432Q865.743 484.862 865.67 485.288C865.177 488.113 863.188 489.417 861.024 491.009C864.177 496.725 881.976 525.452 881.373 529.343C880.416 535.524 857.061 551.652 851.861 554.665C848.482 556.256 845.242 558.042 841.987 559.872C829.84 551.25 823.728 537.409 812.967 527.657C811.688 527.906 810.438 528.078 809.145 528.221C804.935 526.891 800.045 519.362 797.445 515.963C798.504 514.681 799.765 513.531 800.945 512.359C799.505 509.745 798.084 507.027 797.316 504.131C795.338 496.676 796.604 489.537 800.593 483.029C806.351 473.639 815.562 469.058 826.011 466.602Z"/>
	<path d="M855.706 481.314C856.804 481.858 857.422 482.28 858.217 483.216C856.276 488.32 817.664 513.701 810.296 518.944C809.159 518.662 808.871 518.3 808.027 517.527L808.025 516.778C818.368 507.898 830.324 500.179 841.426 492.243C846.285 488.771 851.403 485.475 855.706 481.314Z"/>
	<path d="M827.673 473.55C827.994 473.524 828.317 473.529 828.64 473.523C835.595 473.403 839.259 476.653 844.051 481.266C839.907 483.714 836.2 487.203 832.322 490.079C826.832 494.151 821.122 497.842 815.72 502.05C812.901 504.069 810.172 506.122 807.018 507.594C806.17 505.741 805.233 503.847 804.623 501.902C803.073 496.955 803.998 491.205 806.457 486.714C810.801 478.78 819.493 475.795 827.673 473.55Z"/>
	<path d="M854.262 495.857C859.25 498.707 869.104 521.808 873.59 527.798C869.412 532.805 849.442 550.877 843.383 551.363C841.962 551.477 841.569 550.71 840.625 549.815C835.611 543.631 821.094 528.255 819.203 521.365C821.787 518.01 837.06 509.228 841.715 505.874C846.042 502.756 850.137 499.237 854.262 495.857Z"/>
	<path fill="#E9E9E9" d="M452.34 43.8005C453.499 43.797 454.84 43.7143 455.936 44.1374C459.183 45.391 460.778 59.1127 461.975 62.733C468.34 81.9985 487.14 99.3504 506.767 104.552C512.891 106.175 520.243 105.903 525.88 108.719C526.239 109.764 526.222 109.297 526.038 110.359C525.892 111.206 525.429 112.337 524.763 112.915C522.556 114.829 517.249 115.345 514.423 116.403C508.048 118.787 501.335 122.509 495.812 126.484Q494.714 127.266 493.653 128.096Q492.591 128.926 491.567 129.803Q490.544 130.679 489.56 131.601Q488.577 132.522 487.635 133.486Q486.694 134.451 485.796 135.456Q484.899 136.461 484.047 137.505Q483.195 138.549 482.39 139.631Q481.586 140.712 480.83 141.828Q480.075 142.944 479.37 144.092Q478.664 145.241 478.011 146.419Q477.358 147.598 476.758 148.805Q476.158 150.012 475.612 151.244Q475.067 152.476 474.576 153.731Q474.086 154.987 473.652 156.263Q473.219 157.539 472.842 158.833Q472.465 160.127 472.147 161.436C470.747 167.223 470.172 173.288 469.181 179.165C469.102 179.453 469.064 179.756 468.945 180.03C468.378 181.33 467.505 181.918 466.259 182.494C465.431 182.481 464.9 182.6 464.152 182.17C460.626 180.141 458.986 171.914 457.721 168.071C451.374 148.787 439.878 122.158 418.9 115.517C413.48 113.801 406.547 114.766 401.738 112.111C400.357 111.348 399.84 110.665 399.373 109.181C400.411 105.861 404.097 104.853 407.086 103.935C412.895 102.15 418.413 100.327 423.685 97.204C437.684 88.9097 445.469 73.2477 449.107 57.9574C450.173 53.4776 449.7 47.6456 452.34 43.8005Z"/>
	<path d="M454.869 65.3418C457.101 67.3385 458.221 73.5411 459.676 76.4222C466.415 89.7603 479.78 101.331 493.201 107.538C497.351 109.457 501.842 110.754 506.19 112.155C503.239 113.202 500.307 114.573 497.549 116.056C481.261 124.812 470.795 138.611 465.665 156.107C464.91 158.784 464.596 161.498 464.246 164.248Q461.716 157.378 458.91 150.615C453.248 137.315 444.874 121.862 432.657 113.542C429.06 111.092 425.21 109.482 421.188 107.86Q422.062 107.425 422.914 106.949C439.586 97.6285 449.622 83.4638 454.869 65.3418Z"/>
	<path fill="#E9E9E9" d="M828.025 578.342C829.489 578.276 830.697 578.329 832.049 578.949C842.087 583.554 851.574 590.099 861.187 595.563C871.723 601.551 882.329 607.362 892.818 613.445C897.686 616.268 903.162 618.974 907.499 622.57C907.824 623.714 907.842 624.467 907.422 625.603C906.394 628.379 897.63 640.207 894.969 641.15C892.205 642.13 886.399 637.685 883.592 636.436C875.678 644.822 869.075 655.182 861.885 664.254C858.799 668.199 851.826 678.657 847.766 680.259C844.291 679.758 810.833 658.787 805.73 655.091C804.358 654.097 803.015 653.109 802.744 651.387C806.138 642.375 823.053 612.474 828.587 605.286C824.837 603.097 820.596 600.75 817.603 597.577C820.206 591.009 824.758 584.696 828.025 578.342Z"/>
	<path d="M830.88 587.211C833.483 587.77 895.291 623.001 898.869 626.073C897.045 627.998 895.437 630.148 893.776 632.215L893.185 632.813C887.827 632.644 836.217 601.583 826.935 596.094Q828.954 591.673 830.88 587.211Z"/>
	<path d="M834.421 608.901C839.537 612.386 845.32 615.234 850.712 618.306Q863.488 625.569 875.969 633.328C868.052 645.707 857.752 656.803 849.158 668.758L846.74 672.104C835.6 664.211 823.581 657.009 811.817 650.087C813.598 645.16 816.838 640.521 819.341 635.916C824.276 626.833 829.022 617.723 834.421 608.901Z"/>
	<path fill="#E9E9E9" d="M593.513 50.4311C593.766 50.464 594.02 50.489 594.272 50.5296C600.379 51.5146 640.896 88.6995 645.563 95.0388C645.169 97.0617 644.573 98.9142 645.609 100.839C648.957 107.061 659.264 116.679 664.271 122.474C677.523 137.816 690.228 153.658 703.396 169.064L727.255 197.511C731.696 202.874 736.429 208.173 740.499 213.82C741.533 215.255 742.91 216.954 742.854 218.737C740.056 223.381 734.719 227.292 730.673 230.894C726.737 234.032 723.746 238.092 719.504 240.911C709.647 232.099 702.261 219.53 694.461 208.91Q668.953 174.426 644.28 139.34C641.859 135.954 631.576 119.846 629.499 117.988C627.441 116.146 623.614 117.357 621.174 113.473C615.506 104.449 610.759 94.4392 605.524 85.1175C601.249 77.503 594.425 67.0518 591.158 59.3911C590.373 57.5512 589.584 55.2014 590.304 53.2237C590.869 51.6727 592.148 51.1169 593.513 50.4311Z"/>
	<path d="M611.17 77.3326C614.626 78.9817 634.735 97.2685 637.297 100.415L633.528 103.404C631.508 104.824 630.234 106.216 628.734 108.163C622.536 98.0722 617.297 87.4737 611.17 77.3326Z"/>
	<path d="M637.827 109.818C642.274 112.908 646.375 120.272 650.035 124.53C667.071 144.353 683.198 165.005 699.647 185.323C706.699 194.033 713.367 203.268 720.782 211.659C723.897 215.185 727.425 218.353 730.722 221.712L726.782 225.37L725.136 226.992L724.2 226.972C704.325 200.363 684.176 174.123 663.729 147.95C654.504 136.141 644.574 124.999 635.707 112.877C635.905 111.383 636.808 110.874 637.827 109.818Z"/>
	<path fill="#E9E9E9" d="M267.034 625.826C267.783 625.853 267.96 625.841 268.759 625.965C270.112 626.175 270.921 626.743 271.744 627.815C273.774 633.717 261.956 673.058 260.364 682.331L260.269 682.912C270.344 685.939 304.603 700.69 313.105 706.163C314.585 707.115 316.337 708.278 316.464 710.208C316.544 711.418 315.988 712.784 315.113 713.614C314.226 714.456 313.128 714.816 311.929 714.88C306.781 715.155 301.216 713.697 296.176 712.702C285.167 710.528 273.715 707.439 262.554 706.431L261.82 706.368C258.019 720.88 256.764 736.275 254.745 751.115C253.697 758.822 252.832 766.793 250.328 774.185C249.889 775.48 248.941 778.532 247.656 779.034C246.765 779.382 245.58 779.45 244.716 778.975C240.364 776.583 233.017 744.62 231.583 738.108C229.525 729.199 227.761 720.213 225.764 711.288Q210.966 716.549 195.837 720.764C193.637 721.398 191.466 722.761 189.272 723.212C188.185 723.434 187.793 723.275 186.806 722.883C185.938 721.914 185.388 721.144 185.105 719.847C184.954 719.157 184.992 718.236 185.243 717.571C186.947 713.044 213.203 690.626 218.493 682.803C218.598 682.649 218.697 682.491 218.799 682.335Q214.655 671.163 211.187 659.763C209.328 653.646 202.652 634.734 205.555 629.29C206.515 628.632 206.895 628.211 208.136 628.489C213.854 629.773 237.579 660.363 242.318 666.184C248.112 657.543 261.482 631.235 267.034 625.826Z"/>
	<path d="M214.955 645.338C216.946 646.808 218.523 649.474 220.108 651.409C225.646 658.166 234.963 671.053 241.617 675.574C243.005 676.516 243.866 676.769 245.502 676.453C250.989 670.833 253.632 661.895 257.967 655.276L258.485 654.494C257.416 659.641 256.536 664.868 255.312 669.977C254.331 674.075 252.624 678.353 252.2 682.533C252.067 683.85 252.11 685.246 252.688 686.464C253.258 687.668 254.272 688.502 255.38 689.181C260.884 692.55 268.068 694.713 274.055 697.224C277.486 698.663 280.768 700.512 284.287 701.71C284.443 701.763 284.6 701.812 284.757 701.864L284.71 702.174L285.591 702.285C281.961 702.133 278.534 701.083 275.014 700.292C270.6 699.3 259.359 696.337 255.613 698.73C252.639 702.74 251.981 714.288 251.035 719.608C248.751 732.713 247.138 745.893 244.962 759.013C242.647 750.959 240.289 742.835 238.602 734.626C236.748 725.604 235.513 716.336 233.246 707.417C232.788 705.615 232.233 703.553 230.308 702.768C226.906 701.381 208.971 708.61 204.436 710.057C206.814 706.869 209.268 703.848 212.087 701.036C216.244 696.889 223.784 691.105 226.579 686.284C227.485 684.719 227.566 682.988 227.167 681.254C226.159 676.865 223.579 672.413 222.031 668.141C219.331 660.69 217.238 652.93 214.955 645.338Z"/>
	<path fill="#E9E9E9" d="M677.802 702.471C685.41 702.198 693.462 712.195 698.838 716.84C703.137 715.922 707.938 714.386 712.341 714.511C727.628 714.945 745.558 744.335 756.317 755.13L756.984 755.793C760.341 753.983 763.627 750.44 767.452 749.961C768.629 750.377 769.368 750.984 770.212 751.878C773.302 755.147 781.372 766.63 780.846 771.072C780.736 771.997 779.191 772.797 778.472 773.245C774.426 775.766 770.012 777.845 765.85 780.196Q753.7 787.137 741.717 794.363C734.771 798.343 705.101 817.43 701.029 817.414C700.009 817.41 699.519 816.9 698.878 816.16C696.925 813.905 688.597 799.106 688.718 796.523C690.181 793.01 693.778 791.365 696.842 789.391C689.74 779.767 675.624 762.239 673.347 750.601C672.348 745.494 673.065 740.44 676.01 736.096C673.237 731.341 670.132 726.637 667.658 721.728C666.102 718.639 665.024 715.156 666.288 711.77C668.131 706.833 673.305 704.444 677.802 702.471Z"/>
	<path d="M679.188 709.306C683.76 712.365 687.959 716.471 692.045 720.163Q687.576 723.618 683.305 727.315L680.295 729.659C677.693 724.842 674.946 720.058 672.764 715.033C674.712 712.934 677.002 711.152 679.188 709.306Z"/>
	<path d="M765.037 757.981C766.601 758.969 770.543 766.803 771.968 768.849C755.068 777.063 739.007 787.507 722.924 797.202C716.577 801.027 710.32 805.186 703.664 808.448L702.846 808.377C700.208 805.186 698.524 800.786 696.923 796.997C704.342 792.546 711.497 787.671 718.941 783.264C734.053 774.318 749.493 766.136 765.037 757.981Z"/>
	<path d="M710.254 721.548C711.08 721.492 711.916 721.436 712.744 721.477C721.265 721.893 733.435 739.303 738.575 745.478C742.145 749.767 745.879 753.919 749.462 758.201C737.889 765.073 726.015 771.517 714.251 778.059C710.492 780.174 706.794 782.25 703.33 784.838C698.667 779.938 682.059 756.754 680.407 750.483C679.398 746.655 680.349 742.808 682.366 739.477C687.936 730.277 700.099 723.97 710.254 721.548Z"/>
	<path fill="#E9E9E9" d="M210.214 315.742C210.761 315.711 211.308 315.672 211.856 315.674C224.23 315.726 235.565 321.037 244.269 329.631C251.99 337.254 256.342 347.093 256.33 357.986C256.317 368.916 251.354 379.913 243.551 387.507C234.923 395.906 223.215 399.891 211.304 399.637C198.986 399.375 187.048 394.632 178.482 385.704C176.577 383.484 174.881 381.159 173.175 378.786C170.29 380.725 167.241 382.562 163.949 383.713C157.077 386.114 148.115 385.31 141.579 382.094C135.928 379.314 131.517 374.53 129.674 368.468C127.481 361.25 128.996 353.28 132.578 346.756C135.871 340.758 141.487 336.089 148.118 334.272C156.813 331.888 164.36 334.303 171.778 338.722Q172.891 336.472 174.291 334.39Q175.692 332.307 177.355 330.428C186.406 320.126 196.874 316.591 210.214 315.742Z"/>
	<path d="M152.754 340.619C156.878 340.371 162.389 341.3 166.069 343.265C166.99 343.757 167.802 344.359 168.021 345.417C168.506 347.768 167.555 351.582 167.416 354.083C167.048 360.719 168.097 366.404 169.822 372.799C164.892 375.763 160.312 377.932 154.619 378.872C150.844 378.641 146.681 377.37 143.537 375.229C139.583 372.537 136.851 368.533 136.149 363.769C135.34 358.278 137.049 351.759 140.384 347.33C143.646 342.999 147.607 341.448 152.754 340.619Z"/>
	<path d="M209.032 322.767C219.846 323.637 228.691 325.721 236.992 333.228C243.662 339.259 248.178 347.525 248.584 356.603C248.99 365.697 245.256 374.472 239.161 381.125C232.536 388.354 223.904 391.684 214.249 392.153C204.429 392.418 195.19 390.167 187.335 384.045C180.22 378.499 175.998 370.045 175.007 361.142Q174.905 360.279 174.846 359.411Q174.787 358.544 174.772 357.675Q174.756 356.806 174.785 355.937Q174.813 355.068 174.885 354.202Q174.957 353.336 175.072 352.474Q175.187 351.612 175.345 350.758Q175.503 349.903 175.704 349.057Q175.905 348.212 176.148 347.377Q176.391 346.542 176.676 345.721Q176.96 344.9 177.286 344.093Q177.611 343.287 177.976 342.499Q178.342 341.71 178.746 340.94Q179.151 340.171 179.593 339.423Q180.036 338.675 180.515 337.95Q180.995 337.225 181.51 336.524Q182.025 335.824 182.575 335.151C189.523 326.646 198.469 323.836 209.032 322.767Z"/>
	<path fill="#E9E9E9" d="M211.024 325.289C216.086 324.951 223.446 327.664 227.485 330.562C234.153 335.347 237.883 342.966 239.166 350.913C240.42 358.687 238.631 366.086 234.007 372.43C226.717 382.431 218.939 382.952 207.612 384.723C201.095 384.317 193.656 381.791 188.533 377.685C182.796 373.086 179.271 366.034 178.719 358.728C178.074 350.193 180.92 342.253 186.559 335.857C192.997 328.554 201.586 325.882 211.024 325.289Z"/>
	<path d="M209.574 332.775C212.113 333.979 217.445 333.154 221.322 335.091C225.897 337.377 229.086 342.569 230.667 347.269C232.655 353.18 232.874 359.579 229.939 365.232C226.779 371.32 221.624 374.637 215.292 376.672C210.572 377.205 206.302 376.786 202.154 374.267C197.565 371.48 194.267 366.697 193.026 361.499C191.574 355.414 192.992 348.157 196.266 342.859C199.246 338.037 203.994 334.005 209.574 332.775Z"/>
	<path fill="#E9E9E9" d="M361.22 182.697C372.347 184.398 411.254 199.682 421.613 205.978C423.243 206.969 424.885 208.012 425.351 209.934C423.389 213.502 419.825 215.922 417.706 219.416C413.648 226.106 410.479 232.943 406.809 239.816C396.842 258.479 385.868 276.666 375.55 295.137C371.612 302.186 362.345 320.968 357.849 325.967C356.011 328.011 354.246 327.372 351.956 328.189C349.232 329.16 348.235 332.409 347.106 334.808C343.89 341.282 342.372 346.91 340.988 353.902C340.583 355.946 340.247 356.694 338.515 357.861C334.176 358.557 330.033 355.729 326.236 353.926C322.687 355.238 319.351 357.695 315.635 358.499C314.027 358.847 313.118 358.688 311.749 357.818C311.573 357.078 311.423 356.372 311.503 355.604C311.716 353.561 312.716 351.481 313.424 349.567C317.418 338.775 315.459 326.502 318.62 315.603C319.057 314.096 320.304 313.257 321.477 312.319C322.26 311.692 328.494 287.082 329.421 283.912C334.594 266.224 340.653 248.807 345.947 231.159L354.497 202.889C356.504 196.205 358.263 189.03 361.22 182.697Z"/>
	<path d="M325.944 318.165C331.917 320.4 337.387 323.664 343.415 325.843C339.368 332.088 337.192 339.405 335.245 346.521L334.394 348.17C332.071 349.047 327.778 345.952 321.984 347.598C322.86 337.81 323.926 327.784 325.944 318.165Z"/>
	<path d="M365.673 188.87C371.662 192.105 378.271 194.658 384.47 197.497C394.128 201.92 403.979 207.082 414.191 210.068C412.04 214.093 409.482 217.957 407.099 221.851C404.699 220.757 401.922 219.215 399.323 218.772C398.109 218.565 396.903 218.499 395.891 219.304C392.432 222.06 386.672 236.183 384.217 241.124L355.847 297.706C352.928 303.563 350.542 309.883 347.512 315.611C346.969 316.636 346.472 317.283 345.554 317.982C344.331 317.948 344.429 317.968 343.584 317.077C343.665 314.563 349.749 300.819 351 297.566L371.45 242.852C373.511 237.965 381.568 217.653 381.334 213.941C381.259 212.76 380.99 212.314 380.081 211.619C379.405 211.656 379.253 211.626 378.545 211.861C376.514 212.533 374.615 215.852 373.741 217.63C370.162 224.919 368.047 233.207 365.166 240.821L339.053 311.184C338.532 312.547 337.986 313.95 336.574 314.576L335.765 314.162C334.756 310.556 354.212 252.079 356.791 244.408C359.673 235.832 368.135 212.83 368.355 204.498C366.989 202.047 364.619 201.648 362.125 200.885C362.835 196.689 364.238 192.863 365.673 188.87Z"/>
	<path fill="#E9E9E9" d="M884.603 265.932C885.464 265.949 886.38 265.93 887.221 266.141C892.055 267.356 903.404 290.178 906.546 295.767C912.229 288.87 921.559 276.889 928.621 271.843C929.86 270.958 930.872 270.631 932.403 270.908C933.452 271.543 934.174 272.093 934.749 273.212C938.606 280.717 930.527 295.628 927.824 303.005L928.396 303.692C929.532 304.055 947.539 300.566 951.016 300.227C954.267 299.911 960.057 299.21 962.491 301.904C963.298 302.797 963.546 303.906 963.328 305.072C962.949 307.101 961.06 308.937 959.536 310.174C955.537 313.419 950.674 315.76 946.267 318.423C941.52 321.292 936.84 324.532 932.401 327.859C940.145 332.162 949.299 336.672 955.072 343.574C956.873 345.727 959.082 348.852 958.515 351.849C958.292 353.025 957.608 353.936 956.646 354.618C950.412 359.038 930.922 355.657 923.652 354.309C926.39 362.399 932.653 373.264 931.39 381.916C931.116 383.793 930.229 385.403 928.632 386.473C927.255 387.396 925.606 387.68 923.989 387.34C916.408 385.746 908.772 373.61 904.583 367.504C900.144 376.238 898.699 385.826 892.531 393.833C891.083 394.946 889.25 396.367 887.36 396.542C885.772 396.69 884.564 396.373 883.379 395.261C878.979 391.131 879.342 366.899 878.922 359.615C870.551 368.631 867.934 376.891 855.02 381.287C852.552 382.127 848.757 382.926 846.394 381.36C845.476 380.752 845 379.864 844.818 378.8C843.551 371.387 854.464 357.133 858.747 351.079C852.262 352.879 838.037 355.02 831.679 352.515C829.932 351.827 828.312 350.654 827.691 348.807C827.025 346.827 827.627 344.565 828.671 342.832C832.88 335.842 850.549 328.932 858.319 327.066C853.24 325.47 836.485 321.693 833.343 318.816C832.261 317.825 832.196 317.203 832.098 315.792C832.506 315.088 832.687 314.452 833.437 314.055C838.364 311.448 849.885 317.744 854.865 319.31C858.527 320.462 862.322 321.262 866.065 322.109C859.925 316.145 851.829 311.053 846.505 304.416C844.592 302.032 842.727 298.737 842.993 295.602C843.683 294.522 844.345 293.838 845.451 293.205C852.798 289.003 871.051 296.934 879.014 299.257C880.146 291.686 880.314 274.223 882.796 268.332C883.188 267.401 883.906 266.644 884.603 265.932Z"/>
	<path d="M887.815 275.274C891.833 279.149 898.283 298.708 903.768 304.7C904.775 305.8 905.479 306.181 906.956 306.212C910.584 302.946 913.262 298.283 916.345 294.482C920.158 289.781 924.449 285.375 928.41 280.783C927.518 286.594 925.501 291.974 923.037 297.297C921.557 300.495 918.975 304.392 918.519 307.855C918.873 308.798 918.879 309.136 919.677 309.822C923.707 313.288 946.908 306.708 953.044 306.36L953.817 306.32C947.46 311.659 923.668 321.526 921.097 327.962C923.354 332.821 936.951 338.193 941.733 341.431C945.588 344.041 948.654 347.017 951.822 350.42C945.435 350.247 918.552 345.865 915.614 347.558C914.462 352.556 923.867 372.689 924.825 379.455C924.854 379.659 924.876 379.863 924.901 380.067C916.45 373.943 913.178 363.022 906.208 357.727C904.855 356.699 903.788 356.349 902.067 356.555C899.046 358.27 897.907 364.623 896.7 367.868C894.143 374.981 891.846 381.69 887.678 388.066C887.284 378.172 886.231 368.484 884.95 358.676C884.645 356.341 884.822 353.861 884.243 351.584C883.915 350.293 883.297 349.518 882.168 348.833C877.033 349.301 867.681 364.076 863.405 368.16C860.137 371.281 855.741 373.474 851.863 375.757C854.655 367.815 862.263 354.422 868.817 349.178C869.743 348.437 871.158 347.499 871.844 346.541C872.547 345.558 872.478 344.616 872.119 343.497C871.793 342.48 870.741 341.636 869.729 341.403C865.894 340.521 842.976 349.13 834.423 346.615C832.359 340.452 874.477 329.94 877.004 324.297C876.599 323.119 875.696 322.263 874.801 321.428C870.834 317.721 866.424 314.419 862.358 310.807C857.931 306.874 853.762 302.555 849.689 298.257C858.976 299.85 868.204 303.33 877.267 305.929C878.87 306.389 882.152 307.611 883.624 306.58C886.631 304.474 887.364 279.873 887.815 275.274Z"/>
	<path fill="#E9E9E9" d="M890.229 326.707C892.189 327.525 893.941 329.036 895.614 330.317C899.238 330.535 906.697 329.4 909.273 332.16C910.462 333.434 910.836 334.452 910.896 336.125C910.753 336.19 910.618 336.274 910.468 336.321C909.106 336.748 907.633 336.476 906.466 335.713C905.685 335.203 905.526 335.047 904.657 334.872C904.39 334.819 904.123 334.775 903.856 334.726C898.132 336.155 893.084 339.388 887.369 340.942C886.775 338.539 885.995 335.963 886.187 333.469C886.426 330.364 887.954 328.654 890.229 326.707Z"/>
	<path fill="#E9E9E9" d="M308.245 143.084C315.818 142.568 322.619 144.083 328.759 148.718C330.44 149.987 332.444 151.734 332.524 154.015C332.564 155.142 332.13 155.853 331.391 156.616C327.479 156.468 320.581 149.112 313.337 149.061C304.056 148.996 296.306 156.296 290.037 162.264Q291.145 162.917 292.195 163.659C299.488 168.848 303.968 176.904 305.26 185.709C308.988 211.123 286.574 249.304 271.695 269.324C267.371 275.144 262.315 280.435 257.253 285.613C246.37 296.745 234.299 308.501 218.121 310.884C212.704 311.963 206.47 311.974 201.097 310.59C192.05 308.259 183.718 303.002 179.039 294.772C171.051 280.721 172.291 261.275 176.414 246.241C185.439 213.327 209.388 181.016 239.214 164.16C255.208 155.121 266.548 154.125 283.956 158.906C291.365 149.965 296.821 145.595 308.245 143.084Z"/>
	<path d="M268.582 162.761C276.519 164.009 284.02 166.234 290.217 171.607C295.267 175.986 297.853 182.23 298.258 188.817C299.825 214.296 274.284 255.6 257.723 274.267C244.892 288.728 230.874 302.486 210.588 303.707C203.363 303.73 195.409 301.323 190.049 296.331C183.188 289.942 181.322 279.948 181.098 270.97C180.365 241.697 196.709 212.365 216.445 191.662C230.351 177.074 247.569 163.294 268.582 162.761Z"/>
	<path fill="#E9E9E9" d="M254.933 172.612C261.951 172.297 269.28 173.74 275.246 177.596C281.782 181.819 286.916 189.591 288.354 197.25C289.738 204.622 288.077 212.85 283.766 219.002C278.963 225.858 272.098 229.08 264.126 230.455C256.58 230.882 247.872 230.821 241.129 226.908C235.205 223.469 230.957 216.55 229.37 209.956C227.4 201.771 229.398 193.81 233.796 186.811C238.919 178.659 245.642 174.696 254.933 172.612Z"/>
	<path d="M248.864 181.941L249.242 182.498C245.157 186.715 241.746 190.457 239.85 196.11C236.724 205.427 239.695 211.025 243.852 219.139L243.152 219.414C241.596 217.993 240.279 216.48 239.175 214.676C236.012 209.512 234.861 203.709 236.479 197.801C238.297 191.16 242.992 185.436 248.864 181.941Z"/>
	<path d="M263.231 182.277C266.575 182.345 269.158 182.813 272.085 184.543C276.686 187.263 279.546 192.33 280.73 197.422C282.075 203.198 281.262 208.959 278.005 213.96C274.467 219.393 269.554 221.982 263.377 223.198C258.519 223.163 254.64 222.416 250.772 219.233C246.807 215.97 244.265 210.986 243.805 205.888C243.246 199.693 245.835 193.452 249.953 188.901C253.597 184.877 257.81 182.581 263.231 182.277Z"/>
	<path fill="#E9E9E9" d="M216.262 229.642C223.09 228.997 231.637 230.769 237.233 234.757C243.719 239.379 248.6 246.781 249.896 254.649C251.243 262.831 248.7 271.259 243.84 277.863C238.308 285.38 230.571 288.552 221.618 289.836C213.397 290.656 205.691 290.339 198.754 285.219C192.705 280.755 188.663 273.631 187.592 266.226Q187.475 265.402 187.399 264.574Q187.323 263.745 187.289 262.914Q187.254 262.082 187.261 261.25Q187.268 260.418 187.316 259.588Q187.364 258.757 187.453 257.93Q187.543 257.102 187.673 256.281Q187.803 255.459 187.974 254.644Q188.145 253.83 188.357 253.025Q188.568 252.221 188.819 251.427Q189.07 250.634 189.36 249.854Q189.65 249.074 189.979 248.31Q190.307 247.545 190.673 246.798Q191.039 246.051 191.442 245.323Q191.845 244.595 192.283 243.887Q192.721 243.18 193.195 242.496Q193.668 241.811 194.174 241.151C199.894 233.608 207.242 230.912 216.262 229.642Z"/>
	<path d="M209.689 238.38L210.303 238.679C209.821 240.081 208.322 241.173 207.282 242.214C201.413 248.088 198.692 254.308 198.299 262.636C197.933 270.404 200.015 274.906 205.172 280.592L204.757 281.072C201.842 278.931 199.203 276.205 197.48 273.01C194.287 267.088 193.987 259.563 196.138 253.243C197.694 248.673 201.668 242.387 206.246 240.241C207.446 239.679 208.551 239.062 209.689 238.38Z"/>
	<path d="M220.154 239.576C223.939 239.387 227.513 239.28 231.079 240.762C236.091 242.846 239.511 247.285 241.374 252.275C243.454 257.847 243.328 263.483 240.716 268.853C237.526 275.413 232.297 279.174 225.598 281.535C225.498 281.564 225.398 281.59 225.298 281.621C221.486 282.791 217.956 282.806 214.214 281.281C209.754 279.463 206.257 275.601 204.432 271.195C202.17 265.734 202.618 259.574 204.832 254.178C207.841 246.844 212.948 242.532 220.154 239.576Z"/>
	<path fill="#E9E9E9" d="M645.568 275.395C652.449 272.415 697.293 262.783 702.615 265.509C705.114 266.79 706.868 270.495 707.867 272.947C710.059 278.326 711.249 284.356 712.69 289.987Q716.592 305.391 720.682 320.747C721.882 325.34 722.753 330.158 724.238 334.661C725.994 339.984 730.765 344.232 734.468 348.302C742.245 356.85 753.147 368.637 755.353 380.149C758.813 398.21 753.792 457.737 746.98 474.319C749.355 481.607 750.1 489.886 751.065 497.473C753.527 516.831 754.956 535.73 755.016 555.24C756.54 556.564 758.491 558.017 759.608 559.706C763.263 565.236 763.851 574.065 764.294 580.441C765.841 602.705 761.714 627.453 746.447 644.657C741.856 649.83 735.976 653.874 729.677 656.686C724.005 659.217 717.735 660.902 711.804 662.737Q690.338 669.288 668.575 674.773C651.973 679.108 633.301 684.843 616.426 687.231Q619.874 720.062 623.979 752.818L630.901 816.504C633.623 841.309 636.197 866.427 637.269 891.362C637.721 901.876 637.595 912.364 636.092 922.799C635.218 928.865 632.657 935.687 632.851 941.749C633.028 947.248 638.331 978.971 636.464 981.127C635.944 981.727 635.038 982.144 634.256 982.244C632.979 982.407 631.988 981.859 631.158 980.946C628.638 978.176 628.226 971.652 628.23 968.009C584.518 972.19 539.728 969.362 495.906 968.148C478.867 967.676 461.795 967.995 444.75 968.02Q414.784 967.85 384.825 968.515C384.704 972.559 385.418 978.779 382.756 982.027C381.578 982.529 380.946 982.81 379.647 982.264C378.263 981.682 377.741 979.886 377.483 978.537C375.791 969.68 378.534 959.742 376.179 950.893C375.328 947.698 373.465 944.479 371.909 941.581C367.56 933.476 363.763 926.312 362.779 916.991C361.988 909.498 363.231 901.712 363.403 894.187C363.62 884.68 363.09 875.13 362.827 865.626C361.956 834.18 358.417 802.294 353.886 771.169Q348.541 735.947 340.517 701.238C334.555 675.099 327.285 649.485 326.577 622.498C326.167 606.866 329.525 591.035 338.954 578.259C354.728 556.885 396.401 540.237 420.453 527.73C419.613 511.965 420.717 496.579 416.741 481.115C412.317 480.525 408.242 480.016 405.368 476.118C403.093 473.034 402.911 469.05 403.649 465.409C404.015 463.61 404.808 462.02 405.62 460.388C397.645 450.09 393.216 442.085 393.352 428.779C386.15 416.653 381.701 400.732 385.279 386.699Q385.452 386.01 385.659 385.331Q385.866 384.651 386.106 383.983Q386.346 383.315 386.619 382.659Q386.892 382.003 387.198 381.362Q387.503 380.721 387.84 380.096Q388.177 379.47 388.544 378.863Q388.911 378.255 389.308 377.666Q389.706 377.077 390.131 376.509Q390.557 375.94 391.011 375.394Q391.464 374.847 391.944 374.324Q392.424 373.8 392.93 373.301Q393.435 372.803 393.965 372.329Q394.494 371.856 395.047 371.41Q395.599 370.963 396.173 370.545Q396.747 370.126 397.341 369.737Q397.935 369.348 398.547 368.988C401.803 367.084 405.244 365.8 408.938 365.043C409.158 358.052 411.048 353.053 416.302 348.173C430.511 334.975 455.552 327.368 474.724 328.169C486.241 328.65 503.431 330.566 511.592 339.842C521.265 350.838 517.556 363.921 518.227 376.369C518.494 381.33 521.509 388.761 522.813 393.863C526.28 407.428 529.233 421.183 532.435 434.815C533.09 437.603 535.099 442.17 534.861 444.875C534.782 445.768 533.942 446.688 533.221 447.16C532.113 447.884 531.931 447.794 530.686 447.606C526.005 443.924 522.799 421.843 520.517 414.958C518.45 417.052 516.891 417.904 513.889 417.943C511.922 417.969 510.069 417.085 508.777 415.61Q508.544 415.342 508.339 415.052Q508.133 414.762 507.958 414.453Q507.782 414.144 507.638 413.82Q507.494 413.495 507.383 413.157Q507.272 412.82 507.195 412.473Q507.119 412.126 507.077 411.773Q507.035 411.421 507.028 411.065Q507.021 410.71 507.05 410.356C507.169 408.961 507.74 407.69 508.839 406.784C510.246 405.624 512.64 405.39 514.382 405.769C515.648 406.045 516.891 406.619 518.084 407.116C517.135 403.741 516.299 398.489 514.26 395.726C510.777 398.56 504.952 396.592 500.657 397.535C497.728 398.178 494.981 400.682 492.226 401.919C490.674 402.617 489.049 402.84 487.442 402.16C486.581 401.797 486.708 401.577 486.395 400.784C486.56 399.494 487.304 398.346 488.106 397.35C491.714 392.865 496.393 390.922 502.025 390.508C506.572 390.173 510.16 390.714 513.716 393.689C514.179 389.759 511.008 384.223 508.621 381.155C506.699 378.685 504.518 376.618 501.313 376.216C495.659 375.508 489.489 376.292 483.764 376.306C467.878 376.343 452.357 375.938 436.532 377.582C433.162 390.013 429.553 397.078 419.743 405.954L419.964 406.8C422.998 418.215 433.826 434.351 427.173 446.062C427.054 446.271 426.927 446.476 426.804 446.683C432.136 468.713 448.95 488.521 468.032 500.166C479.047 506.887 492.795 510.567 505.585 507.366C512.996 505.512 517.765 501.737 521.637 495.236C526.924 486.36 528.467 476.662 529.314 466.53C529.55 463.707 529.388 459.829 530.291 457.167C530.836 455.559 531.243 455.172 532.787 454.765C534.963 455.399 536.325 456.725 537.351 458.746C541.017 465.975 535.641 485.214 532.991 492.537C529.222 502.955 523.476 511.234 513.167 515.977C510.368 517.264 507.657 517.808 504.611 518.195Q505.372 524.546 505.841 530.926C511.949 526.778 519.113 525.781 525.159 521.704C543.011 509.665 560.391 495.217 577.079 481.591C594.903 467.036 612.956 452.393 629.976 436.894C629.706 422.321 626.364 384.985 632.974 372.987C638.961 362.118 647.773 353.765 655.366 344.162Q652.767 331.875 649.941 319.638C647.699 310.07 641.968 290.487 642.661 281.316C642.788 279.626 643.701 278.265 644.583 276.865C644.898 276.365 645.221 275.874 645.568 275.395Z"/>
	<path d="M400.687 426.353C401.537 426.351 402.416 426.344 403.254 426.49C406.176 426.997 409.412 430.575 411.081 432.848C416.278 439.925 417.555 447.773 416.184 456.31C415.61 456.385 414.844 456.534 414.252 456.469C411.824 456.203 409.432 453.918 408.018 452.07C402.697 445.113 399.727 434.988 400.687 426.353Z"/>
	<path d="M603.7 605.248C604.271 605.383 605.257 605.538 605.796 605.837C606.859 606.427 607.308 606.916 607.64 608.063C608.946 612.579 608.878 618.527 609.376 623.283C611.129 640.042 614.225 662.639 613.51 679.081C613.456 680.336 613.234 681.163 612.665 682.274C611.194 682.208 610.088 682.128 608.708 681.525C605.274 677.314 602.016 619.011 601.467 609.796C601.337 607.6 602.321 606.808 603.7 605.248Z"/>
	<path d="M493.666 672.797C494.758 673.132 495.471 673.49 496.393 674.163C496.424 674.521 496.566 674.888 496.486 675.238C495.716 678.61 492.926 682.676 491.43 685.937C489.064 691.095 486.947 696.384 484.754 701.618L455.53 770.785C452.812 777.263 451.305 784.348 448.308 790.66C446.683 794.082 445.334 795.513 441.754 796.731C440.76 796.157 439.553 795.305 438.957 794.281C438.316 793.18 438.37 791.921 438.665 790.724C439.794 786.139 442.047 781.597 443.838 777.222C448.104 766.802 452.631 756.612 457.133 746.299C463.865 730.879 470.163 715.28 477.066 699.921C480.175 693.003 483.191 685.601 487.134 679.105C488.82 676.329 490.934 674.503 493.666 672.797Z"/>
	<path d="M426.838 503.942C433.262 509.286 438.803 514.538 446.24 518.617C461.882 527.196 481.959 525.913 498.556 521.16C498.476 525.648 498.033 529.914 498.519 534.414L494.196 536.01C480.829 540.973 467.246 545.884 452.752 543.691C443.147 542.237 433.687 537.446 427.892 529.511C427.219 521.427 425.438 511.892 426.838 503.942Z"/>
	<path d="M698.143 271.753C698.312 271.778 698.491 271.765 698.649 271.828C699.563 272.192 700.481 273.015 700.881 273.92C702.896 278.481 704.604 288.654 705.988 294.088Q710.506 312.009 716.135 329.613C714.533 329.039 712.883 328.5 711.232 328.089C707.374 327.128 703.19 326.9 699.233 326.699C686.392 326.046 678.08 329.028 667.17 335.49C665.395 336.645 663.566 337.708 661.743 338.785L661.054 338.486C658.863 324.303 654.834 310.203 652.026 296.096C651.11 291.497 649.689 286.366 649.472 281.686C652.865 278.581 690.571 273.475 698.143 271.753Z"/>
	<path fill="#E9E9E9" d="M660.204 280.456C661.762 280.392 663.18 280.413 664.672 280.923C666.481 281.542 667.977 282.97 668.799 284.689Q668.925 284.954 669.022 285.231Q669.12 285.507 669.188 285.792Q669.256 286.078 669.294 286.369Q669.332 286.659 669.34 286.953Q669.347 287.246 669.324 287.538Q669.301 287.831 669.248 288.119Q669.194 288.407 669.111 288.689Q669.028 288.97 668.916 289.241C668.076 291.301 666.542 292.164 664.6 293.031C663.878 293.172 663.713 293.227 662.916 293.266C660.966 293.363 658.756 292.301 657.509 290.834C656.299 289.412 655.922 287.511 656.169 285.69C656.534 282.999 658.133 281.934 660.204 280.456Z"/>
	<path d="M717.763 338.577C725.398 351.647 738.544 360.936 745.59 374.483C752.19 387.174 747.091 441.736 744.316 457.067C743.242 463 741.414 468.649 739.57 474.375C744.399 494.347 752.275 556.708 744.581 573.368C742.29 578.328 737.793 582.147 732.667 583.944C724.528 586.798 714.301 585.127 706.765 581.244C696.592 576.002 690.779 566.002 687.471 555.445C693.204 537.797 701.969 519.636 705.299 501.376C706.614 497.056 707.161 492.963 707.532 488.476C705.003 485.962 701.746 484.216 698.879 482.099C691.152 476.395 688.242 469.725 684.382 461.287C685.677 456.329 687.62 451.602 689.527 446.855C691.134 442.852 692.673 438.271 695.419 434.894C700.52 428.623 719.044 423.249 727.043 420.311C730.336 419.101 734.5 417.571 736.802 414.834C737.722 413.739 737.995 412.465 737.867 411.071C737.733 409.616 736.944 408.417 735.842 407.505C729.426 402.2 714.89 402.822 707.166 403.558C717.11 398.309 728.686 396.681 738.411 391.393C740.399 390.312 742.899 388.448 743.271 386.042C743.439 384.954 743.142 383.912 742.515 383.022C739.016 378.058 728.013 375.664 722.201 375.135C719.613 374.899 717.068 375.349 714.516 374.823L714.763 374.416C718.438 373.194 721.913 371.111 725.7 370.363C726.508 371.108 726.84 372.033 727.316 373.01C728.411 373.76 729.268 374.341 730.672 374.176C731.519 374.076 732.285 373.968 732.832 373.281C734.299 371.44 734.493 368.253 734.193 366.008C733.779 362.9 732.538 360.278 729.946 358.432C718.851 350.525 697.076 353.837 684.453 355.658L683.998 356.08L683.664 355.633L682.715 355.771C688.004 349.776 710.592 345.128 717.369 338.946C717.502 338.825 717.632 338.7 717.763 338.577Z"/>
	<path d="M703.569 333.315C706.208 333.807 708.997 333.974 711.67 334.268C706.767 336.885 701.308 338.538 696.206 340.748C684.594 345.779 671.452 354.518 663.029 364.031C661.735 365.492 660.976 366.668 661.077 368.644C663.766 370.966 667.471 368.409 670.15 367.18C686.796 359.541 708.274 357.206 725.746 363.164C712.823 368.727 699.463 373.433 686.742 379.432C682.419 381.471 673.734 385.5 672.022 390.256C672.287 391.474 672.331 391.539 673.251 392.382C676.989 393.258 680.706 390.481 684.149 389.229C698.526 383.997 720.044 378.313 734.53 385.297C734.718 385.388 734.904 385.484 735.091 385.578C727.998 388.891 720.201 390.539 713.042 393.744C710.605 394.835 691.002 406.925 690.098 407.824C689.438 408.481 688.812 409.342 688.609 410.273C688.312 411.628 688.711 411.998 689.496 412.964C692.22 413.988 695.019 412.486 697.566 411.495C705.772 408.304 720.781 409.069 729.282 411.4C718.476 418.101 697.474 420.651 689.669 430.759C686.652 434.668 678.976 452.851 677.782 457.692C677.384 459.302 677.451 460.849 677.714 462.477C679.823 475.519 689.863 484.949 700.165 492.039C698.647 498.939 690.664 530.093 686.74 533.978C683.582 533.589 665.775 538.8 660.545 539.598C646.461 541.747 631.577 543.002 617.345 542.835Q624.686 533.037 632.37 523.506C637.543 517.126 641.995 510.137 646.961 503.588C650.934 498.346 654.756 493 658.711 487.75C660.495 485.381 662.762 483.074 664.272 480.536C665.166 479.033 665.968 477.049 665.969 475.273C665.969 473.902 665.688 473.291 664.794 472.3C664.535 472.306 663.731 472.312 663.508 472.375C660.896 473.115 658.086 476.803 656.391 478.851C652.985 482.965 650.124 487.431 646.922 491.694L624.463 521.279C607.31 543.732 589.618 565.78 572.642 588.366Q570.762 587.573 568.964 586.609C546.345 574.236 533.913 553.957 526.735 529.886C530.875 526.018 535.741 522.885 540.303 519.535Q551.292 511.53 562.05 503.216C581.925 487.835 600.954 471.572 620.008 455.201C623.812 451.932 633.806 444.578 636.091 440.796C636.796 439.627 636.899 438.239 636.956 436.899C637.159 432.172 636.407 427.221 636.197 422.469C635.719 411.631 635.212 387.072 638.673 377.409C639.966 373.798 642.706 370.413 645.072 367.441C655.639 354.17 669.002 337.452 686.735 334.359C692.026 333.437 697.547 334.056 702.897 333.401L703.569 333.315Z"/>
</svg>
