<?xml version="1.0" encoding="utf-8" ?>
<svg xmlns="http://www.w3.org/2000/svg" xmlns:xlink="http://www.w3.org/1999/xlink" width="1024" height="1024">
	<path d="M0 0L1024 0L1024 501.808L1024 507.208L1024 1024L0 1024L0 0Z"/>
	<path fill="#E9E9E9" d="M784.855 758.561C786.066 758.44 786.861 758.537 788.034 758.857L788.194 759.623C786.146 762.201 780.744 762.901 777.676 763.597C776.19 763.789 775.21 763.73 773.739 763.438L773.41 762.705C775.588 760.107 781.68 759.309 784.855 758.561Z"/>
	<path fill="#E9E9E9" d="M804.217 912.543C805.666 912.546 806.253 912.302 807.398 913.241L807.255 914.077C802.878 917.612 789.473 919.598 783.617 920.901C782.299 921.05 781.408 921.217 780.178 920.573L780.269 919.594C782.882 917.255 799.488 913.877 804.217 912.543Z"/>
	<path fill="#E9E9E9" d="M774.251 750.086C775.391 750.297 775.364 750.486 776.153 751.263L775.914 752.12C771.796 755.381 750.852 759.006 744.754 760.235L744.159 760.195C743.451 759.358 743.215 759.336 743.106 758.2C745.818 755.91 769.509 751.124 774.251 750.086Z"/>
	<path fill="#E9E9E9" d="M377.56 787.602C378.192 787.513 378.588 787.442 379.251 787.427C380.399 787.401 381.037 787.504 381.845 788.349L381.624 789.146C381.218 789.539 380.774 790.014 380.27 790.281C377.924 791.526 373.728 791.766 371.023 792.508C363.948 794.448 356.937 796.727 349.926 798.888C348.461 799.093 347.543 799.34 346.218 798.568L346.192 797.85C349.406 794.701 372.059 788.873 377.56 787.602Z"/>
	<path fill="#E9E9E9" d="M916.567 901.612C917.563 901.988 917.839 901.944 918.516 902.812C917.819 903.697 917.271 904.217 916.239 904.659C912.236 906.371 907.693 906.969 903.502 908.076C895.038 910.311 886.67 912.967 878.123 914.875C877.085 914.782 876.915 914.686 876.055 914.086C876.131 913.955 876.192 913.816 876.282 913.695C878.421 910.81 910.76 902.953 916.567 901.612Z"/>
	<path fill="#E9E9E9" d="M250.028 936.648C251.034 937.386 250.79 937.167 250.964 938.258C247.454 941.348 239.51 942.034 234.89 943.477C223.177 947.136 211.842 952.101 200.146 955.626C199.753 955.131 199.505 954.57 199.214 954.011L199.785 952.923C207.954 948.194 240.147 938.527 250.028 936.648Z"/>
	<path fill="#E9E9E9" d="M208.559 935.66L209.395 936.305L209.543 937.468C207.385 939.528 160.952 951.279 154.66 952.9C154.191 952.498 153.945 952.029 153.617 951.512L154.234 950.645C163.572 946.033 176.417 944.386 186.585 941.613C193.744 939.662 201.232 936.618 208.559 935.66Z"/>
	<path fill="#E9E9E9" d="M750.825 746.077C752.132 746.076 752.74 745.954 753.896 746.602L753.839 747.264C752.722 748.505 751.141 749.269 749.569 749.792C745.363 751.191 740.405 751.946 736.049 752.938C725.286 755.389 714.446 757.656 703.843 760.742C702.974 760.881 702.29 760.849 701.418 760.739L700.694 759.701L701.06 758.796C704.469 756.475 743.326 747.828 750.825 746.077Z"/>
	<path fill="#E9E9E9" d="M872.832 898.083C872.96 898.084 873.094 898.052 873.218 898.088C874.235 898.384 874.274 898.822 874.596 899.715C873.928 900.74 873.637 900.928 872.427 901.345C870.264 902.092 867.892 902.151 865.685 902.767Q844.761 908.521 823.616 913.4L821.189 913.217L820.906 912.611C821.113 912.401 821.334 912.204 821.525 911.98C822.003 911.418 822.067 911.173 822.762 910.797C827.357 908.313 834.446 907.495 839.551 906.226C850.625 903.474 861.693 900.555 872.832 898.083Z"/>
	<path fill="#E9E9E9" d="M771.283 394.344C771.681 394.427 772.026 394.471 772.387 394.7C773.392 395.34 773.799 396.134 774.047 397.246C773.411 400.341 756.756 412.238 753.433 415.549C749.403 419.563 746.393 424.337 742.635 428.564C742.219 428.359 741.543 428.054 741.204 427.754C740.256 426.919 740.02 426.051 740.12 424.833C740.696 417.766 764.951 398.337 771.283 394.344Z"/>
	<path fill="#E9E9E9" d="M732.682 311.714C734.331 312.015 735.284 312.145 736.513 313.311C736.878 316.195 735.004 320.279 734.1 323.075C729.003 338.841 721.256 353.857 712.394 367.835C704.817 379.785 696.64 391.099 690.629 403.962C690.206 403.928 689.599 403.904 689.21 403.746C688.567 403.483 687.833 402.968 687.589 402.299C685.661 396.999 704.387 371.134 708.2 365.194C711.112 360.658 713.949 356.007 716.451 351.232Q722.599 339.648 727.12 327.338C728.949 322.286 730.14 316.403 732.682 311.714Z"/>
	<path fill="#E9E9E9" d="M920.821 455.668C921.759 455.499 922.966 455.466 923.916 455.532C925.165 455.619 925.566 455.929 926.298 456.887L925.811 458.165C922.069 461.295 916.521 461.113 911.953 462.324Q906.357 463.829 901.026 466.1C890.309 470.676 881.568 478.734 870.78 482.988C861.829 486.518 851.986 486.945 842.885 489.987C837.624 491.745 833.287 495.606 827.869 497.042C827.128 497.186 826.258 497.371 825.505 497.265C824.071 497.062 822.927 496.493 821.984 495.453C822.02 494.907 821.935 494.865 822.227 494.46C822.535 494.033 822.671 493.914 823.077 493.626C825.561 491.865 828.757 490.732 831.532 489.503C836.864 487.142 842.124 484.914 847.8 483.494C854.68 481.772 862.349 480.813 868.91 478.219C874.815 475.884 880.011 472.195 885.361 468.838C896.503 461.848 907.788 457.614 920.821 455.668Z"/>
	<path fill="#E9E9E9" d="M311.117 289.792C311.784 290.161 311.799 290.128 312.38 290.608C315.015 292.785 319.075 302.383 321.018 305.754C328.561 318.847 336.542 331.712 343.842 344.942C349.33 354.887 354.27 365.15 359.429 375.271C361.639 379.607 366.45 386.344 366.642 391.016C365.986 392.419 365.874 392.517 364.548 393.326C364.077 393.039 363.771 392.876 363.339 392.49C360.05 389.557 339.5 347.356 335.934 340.799C331.376 332.417 326.239 324.301 321.35 316.109C319.098 312.335 308.553 296.03 308.805 292.802C308.934 291.148 309.949 290.719 311.117 289.792Z"/>
	<path fill="#E9E9E9" d="M181.632 373.276Q182.604 373.326 183.566 373.469C186.589 373.946 190.607 377.492 193.148 379.269C218.456 396.975 241.211 417.939 263.387 439.361C266.767 442.626 273.307 447.829 275.401 451.748C276.184 453.212 275.817 453.696 275.393 455.221C274.189 455.163 273.457 455.145 272.389 454.521C268.403 452.19 259.23 442.037 255.279 438.259C240.706 424.327 225.768 410.428 209.804 398.091C204.441 393.947 199.017 389.822 193.444 385.964C189.497 383.232 184.628 380.682 181.264 377.275C180.819 375.732 181.186 374.748 181.632 373.276Z"/>
	<path fill="#E9E9E9" d="M880.815 388.518C881.873 388.378 883.164 388.081 884.098 388.793C885.126 389.575 885.221 390.002 885.319 391.178C884.298 393.053 870.258 400.573 867.125 402.641C856.438 409.695 846.143 417.328 835.585 424.568C826.834 430.569 817.825 436.117 809.332 442.5C799.232 450.09 791.534 459.741 781.897 467.15C780.678 467.345 779.761 467.106 778.77 466.481L778.675 465.028C780.074 461.67 783.92 458.667 786.496 456.154C794.081 448.752 801.811 441.555 810.409 435.321C817.935 429.863 825.968 425.092 833.605 419.785C849.175 408.965 864.009 397.441 880.815 388.518Z"/>
	<path fill="#E9E9E9" d="M72.3815 560.624C74.0281 560.585 75.6309 560.605 77.2633 560.858C80.7096 561.393 84.1029 562.737 86.109 565.745C88.867 569.88 87.9084 574.606 87.1169 579.163C91.0934 579.148 95.0538 579.569 98.5721 581.574C101.478 583.23 103.989 586.131 104.753 589.441C105.647 593.317 103.935 597.391 101.773 600.534C99.4719 603.878 96.1106 607.609 91.9499 608.297C91.1767 608.081 90.64 608.115 90.1263 607.44C86.9977 603.329 93.5857 599.825 95.654 596.974C97.2011 594.842 97.89 592.6 98.2643 590.025C90.0254 581.875 82.7112 590.75 76.6104 589.018C75.7989 588.787 75.7052 588.196 75.3067 587.519C74.9573 583.053 79.4685 578.801 80.9364 574.652C81.4226 573.278 81.6756 571.541 80.8218 570.243C79.8899 568.825 77.7654 567.91 76.1461 567.671C70.156 566.788 65.0556 572.106 60.7101 575.416C59.4184 576.4 58.2865 577.021 56.6125 576.8C55.6793 576.194 55.0903 575.535 54.8521 574.399C54.5502 572.958 55.2506 571.535 56.0715 570.404C59.6987 565.405 66.4243 561.658 72.3815 560.624Z"/>
	<path fill="#E9E9E9" d="M106.788 416.746C111.185 417.523 115.556 419.715 119.603 421.58C135.166 428.751 149.816 437.587 160.792 451.081C167.043 458.768 172.184 469.551 180.53 475.145C188.142 480.246 201.516 485.664 210.09 489.232C216.501 491.9 224.877 494.261 230.041 498.929C230.611 500.466 230.398 500.963 230.108 502.541C229.92 502.565 229.734 502.603 229.545 502.613C225.906 502.796 215.928 496.815 212.07 495.197C200.579 490.374 185.309 485.175 175.659 477.296C170.378 472.984 166.649 466.959 162.716 461.463C156.921 453.365 150.893 446.197 142.906 440.136C134.865 434.034 126.01 429.925 116.981 425.587C113.978 424.144 109.704 422.941 107.164 420.859C106.379 419.239 106.627 418.509 106.788 416.746Z"/>
	<path fill="#E9E9E9" d="M866.271 244.689C869.515 244.431 873.042 244.727 876.255 245.227C890.818 247.49 900.214 257.241 908.53 268.613C918.064 264.434 927.644 262.163 938.078 263.793C952.314 266.018 961.437 274.54 969.694 285.684C974.435 286.074 982.749 285.88 986.579 288.844C987.62 289.649 988.36 290.812 988.364 292.171C988.367 293.389 987.98 294.409 987.02 295.179C983.106 298.316 896.672 298.492 884.296 298.499C853.878 298.536 823.323 297.588 792.912 296.775C786.46 296.603 770.308 297.228 764.795 295.725C763.694 295.425 763.098 294.946 762.702 293.836C762.021 291.927 762.942 289.508 763.767 287.8C768.128 278.759 776.652 272.842 785.956 269.67C800.185 264.819 814.948 268.026 828.088 274.444C829.483 268.759 831.429 263.772 835.161 259.193C842.897 249.703 854.465 245.884 866.271 244.689Z"/>
	<path d="M864.361 252.17C868.718 251.371 874.194 251.845 878.473 252.982C886.613 255.147 894.299 260.919 899.103 267.786C900.749 270.138 901.899 272.776 903.397 275.212C904.147 276.43 904.562 277.377 906.117 277.446C908.732 277.561 913.44 274.628 915.975 273.544C923.365 270.384 932.598 270.062 940.333 272.053C950.611 274.699 957.883 280.877 963.257 289.839C931.886 291.401 900.376 290.794 868.973 290.932C858.65 291.021 848.249 290.406 837.926 290.114C815.853 289.49 793.737 288.79 771.658 288.56C772.893 286.43 774.378 284.645 776.218 283.009C787.689 272.811 805.465 272.758 819.07 278.273C823.06 279.89 827.3 283.295 831.634 283.57C834.502 281.473 835.449 270.439 839.54 264.928C845.516 256.878 854.808 253.571 864.361 252.17Z"/>
	<path fill="#E9E9E9" d="M387.115 43.1498C389.628 42.8969 392.231 42.8988 394.752 43.0108C405.575 43.4912 417.928 48.6608 425.225 56.7847C431.435 63.6985 433.591 71.1408 433.056 80.3308C444.095 81.309 490.545 88.9891 498.094 95.0553C499.385 96.0928 499.608 96.9549 499.737 98.5518C499.639 98.6674 499.556 98.7975 499.443 98.8985C498.046 100.146 494.853 100.423 493.059 100.537C475.112 101.671 456.645 100.987 438.657 100.957Q397.948 100.677 357.25 101.7C332.828 102.547 308.253 102.36 283.817 102.165C275.203 102.097 266.555 102.39 257.951 102.205C255.851 102.16 253.997 102.394 252.494 100.675C251.682 99.7471 251.562 98.7413 251.724 97.554C252.225 93.8681 257.174 89.921 260.161 87.9388C271.774 80.2297 283.835 79.0264 297.259 81.7253C298.166 78.6767 299.106 75.7328 300.576 72.9012C305.187 64.0205 312.837 58.8879 322.207 55.9612C335.423 51.8331 349.17 52.5108 361.452 58.9277L361.788 58.4654Q362.346 57.6964 362.942 56.9562Q363.538 56.216 364.169 55.5064Q364.801 54.7969 365.468 54.1197Q366.134 53.4425 366.834 52.7994Q367.533 52.1563 368.264 51.5489Q368.995 50.9415 369.754 50.3713Q370.515 49.8011 371.302 49.2695Q372.09 48.7379 372.903 48.2462Q373.716 47.7546 374.552 47.3041Q375.389 46.8535 376.247 46.4453Q377.105 46.0371 377.982 45.6722Q378.859 45.3073 379.754 44.9865Q380.648 44.6658 381.557 44.3901Q382.467 44.1144 383.388 43.8844Q384.31 43.6544 385.243 43.4706Q386.175 43.2868 387.115 43.1498Z"/>
	<path d="M390.335 50.1858C395.726 49.7818 400.916 50.641 405.962 52.5571C414.561 55.8228 425.071 62.9472 425.635 73.0503C425.816 76.2961 424.35 82.7957 426.043 85.5196C426.195 85.7647 426.882 86.5684 427.19 86.7595C429.18 87.9918 438.216 88.4214 440.843 88.7656C450.534 90.0353 460.416 91.7663 469.817 94.4502C454.033 94.9293 438.114 94.4037 422.313 94.4356Q377.779 94.3939 333.25 95.0489C309.73 95.3829 286.137 95.8621 262.621 95.3306C281.016 81.6253 297.475 90.9897 300.529 89.3081C305.795 86.4082 305.141 71.3703 317.821 65.1632C325.963 61.1774 341.659 59.0884 350.331 62.0703C354.804 63.6081 358.65 66.5072 363.105 68.1076C366.148 67.3565 368.042 62.5861 369.914 60.2221C375.06 53.7231 382.401 51.0985 390.335 50.1858Z"/>
	<path fill="#E9E9E9" d="M172.654 108.201C185.603 106.44 200.644 109.106 211.556 116.44C224.849 125.372 230.201 137.145 233.259 152.363C241.272 146.899 249.19 143.28 259.041 143.116C267.991 142.967 278.082 145.805 284.556 152.248C289.543 157.211 291.121 163.027 291.09 169.841C300.89 167.567 313.559 167.516 323.052 171.129C330.804 174.079 335.312 179.411 338.627 186.787C355.277 187.127 371.92 188.264 387.38 195.037C390.029 196.197 392.877 197.475 393.98 200.327C393.779 201.666 393.71 202.267 392.599 203.212C391.672 204.001 389.955 204.028 388.791 204.072C385.3 204.205 381.686 203.624 378.185 203.502C370.669 203.241 363.086 203.301 355.559 203.168L271.787 201.579C248.298 201.535 45.3059 201.3 38.8936 196.929C37.8449 196.214 37.2721 195.012 37.1465 193.768C37.0234 192.55 37.4437 191.486 38.1778 190.536C44.3695 182.521 74.7431 174.369 85.5135 172.1C93.1333 170.495 100.882 169.573 108.562 168.309Q108.687 167.056 108.858 165.808Q109.029 164.56 109.245 163.32Q109.462 162.079 109.724 160.848Q109.987 159.616 110.294 158.395Q110.602 157.173 110.954 155.964Q111.306 154.755 111.703 153.56Q112.099 152.365 112.54 151.185Q112.98 150.005 113.463 148.842Q113.947 147.679 114.473 146.535Q114.999 145.391 115.567 144.267Q116.135 143.143 116.743 142.04Q117.352 140.938 118.001 139.859Q118.65 138.78 119.339 137.725Q120.027 136.67 120.754 135.642Q121.48 134.613 122.244 133.612Q123.009 132.611 123.809 131.639C136.337 116.461 153.518 109.983 172.654 108.201Z"/>
	<path d="M172.39 115.707C184.302 114.082 198.992 116.509 208.823 123.73Q209.669 124.351 210.482 125.014Q211.294 125.677 212.073 126.38Q212.851 127.083 213.593 127.825Q214.335 128.566 215.038 129.345Q215.742 130.123 216.405 130.936Q217.068 131.749 217.689 132.594Q218.31 133.44 218.887 134.315Q219.465 135.191 219.997 136.095Q220.529 136.999 221.015 137.928Q221.501 138.858 221.939 139.811Q222.378 140.764 222.767 141.738Q223.157 142.712 223.496 143.705Q223.836 144.697 224.125 145.706Q224.414 146.714 224.651 147.736Q224.889 148.758 225.074 149.79Q225.26 150.822 225.393 151.863C225.889 155.834 225.486 159.953 226.218 163.884C226.499 165.391 226.877 166.699 228.216 167.566C232.854 166.374 237.129 158.921 241.144 155.917C246.958 151.569 256.966 149.891 264.02 150.906C270.639 151.859 277.934 155.53 281.886 161.025C288.835 170.689 277.514 172.233 277.63 176.74C277.669 178.251 278.121 178.692 279.051 179.76C283.346 181.317 290.645 178.002 295.194 177.189Q299.994 176.351 304.866 176.326C312.933 176.246 324.83 177.276 329.045 185.264C330.715 188.428 331.748 191.746 334.384 194.276C334.52 194.406 334.66 194.533 334.798 194.661C304.17 193.655 273.396 194.208 242.743 193.827C229.354 193.384 215.901 193.517 202.502 193.378L106.351 192.626C87.7879 192.44 69.286 192.612 50.7484 191.393C69.3561 182.947 89.2952 178.886 109.457 176.566C110.961 176.393 114.474 176.152 115.368 174.803C117.049 172.268 116.65 165.386 117.284 162.15C119.047 153.153 123.585 143.92 129.314 136.792C139.816 123.725 156.132 117.405 172.39 115.707Z"/>
	<path fill="#E9E9E9" d="M818.689 77.1964C827.5 76.2094 837.821 77.7146 846.039 81.0182C857.225 85.5147 865.602 93.3771 870.226 104.58C875.705 117.851 873.415 131.417 868.008 144.315C872.828 144.852 877.664 145.385 882.441 146.23C891.464 147.826 944.271 158.596 948.44 162.123C949.39 162.927 949.965 164.197 949.969 165.453C949.973 166.825 949.495 167.432 948.642 168.428C943.396 170.459 909.638 169.871 902.018 170.006L818.175 171.53L709.921 174.323L624.762 176.461C617.224 176.576 609.525 177.601 602.029 177.319C600.232 177.251 598.639 177.173 597.203 175.99C596.485 174.62 595.916 173.072 596.646 171.533C599.585 165.34 628.393 149.372 636.144 145.585Q643.106 142.158 650.508 139.83C664.567 135.462 677.099 136.601 690.071 143.472Q690.191 142.366 690.353 141.265Q690.516 140.165 690.721 139.072Q690.926 137.978 691.174 136.893Q691.421 135.809 691.71 134.735Q692 133.66 692.331 132.598Q692.661 131.536 693.033 130.488Q693.405 129.439 693.817 128.406Q694.229 127.373 694.681 126.356Q695.133 125.34 695.625 124.341Q696.116 123.343 696.645 122.365Q697.175 121.386 697.742 120.429Q698.309 119.472 698.913 118.538Q699.516 117.603 700.156 116.693Q700.796 115.783 701.47 114.898Q702.144 114.014 702.853 113.156Q703.561 112.298 704.302 111.468C712.119 102.811 722.488 97.766 734.166 97.2595C748.821 96.6238 762.859 103.271 773.505 113.058C776.14 106.205 778.933 99.6281 783.626 93.8944C792.582 82.953 804.994 78.5442 818.689 77.1964Z"/>
	<path d="M821.255 84.7088C831.085 83.8759 841.448 86.1241 849.76 91.5072C861.19 98.9095 868.105 113.446 865.437 127.081C864.312 132.83 857.471 145.517 858.398 149.98C861.446 152.109 872.556 152.714 876.592 153.335C890.147 155.419 903.674 158.77 917.093 161.64C908.727 163.147 899.36 162.494 890.864 162.64L839.523 163.464L681.368 167.482C671.575 167.487 661.742 168.152 651.953 168.498C637.838 168.996 623.717 169.288 609.618 170.142C630.659 157.591 658.456 135.25 684.015 148.541C686.545 149.857 691.654 154.697 694.211 154.415C695.648 154.256 696.863 153.096 697.245 151.752C698 149.095 697.917 145.649 698.23 142.884C699.266 133.728 702.266 124.58 708.436 117.593C715.353 109.759 723.806 105.532 734.236 104.969C745.855 104.341 757.05 108.954 765.751 116.551C768.378 118.845 770.531 121.647 773.183 123.904C774.635 125.14 775.705 125.386 777.57 125.257C778.508 124.658 778.923 123.997 779.286 122.944C782.745 112.921 781.034 108.965 788.865 99.3103C797.117 89.1377 808.718 85.9259 821.255 84.7088Z"/>
	<path fill="#E9E9E9" d="M463.861 214.926C460.121 203.641 458.423 192.054 463.974 181.006C470.47 168.079 485.073 161.837 498.201 157.661C509.789 153.974 524.778 154.449 535.663 160.188C544.33 164.757 549.973 173.059 552.786 182.271C553.743 185.403 554.559 188.729 554.803 191.998L550.397 195.769C555.437 213.79 555.024 236.699 545.623 253.303C542.992 257.95 539.574 262.59 534.192 264.102C529.847 265.323 524.667 265.066 520.187 265.198C519.607 269.397 519.388 273.514 519.528 277.752C542.604 282.3 553.429 288.366 566.644 308.11Q569.896 312.898 572.645 317.991Q575.394 323.083 577.612 328.429C582.642 340.359 586.531 352.833 591.161 364.931C593.112 370.026 595.081 376.248 598.182 380.733C599.003 381.92 599.992 382.813 601.459 383.112C603.7 383.568 605.919 382.334 607.596 380.976C618.976 371.764 632.43 335.457 637.566 320.553C639.688 314.398 641.397 308.043 643.661 301.949C638.269 301.735 626.436 303.311 622.017 301.222C620.082 298.467 621.001 294.421 621.544 291.316C622.997 283.021 624.676 274.779 626.034 266.466C627.115 259.853 627.833 252.889 629.439 246.394C629.743 245.166 630.392 242.464 631.57 241.816C634.245 240.343 657.02 240.017 660.239 240.881C661.331 241.841 661.494 242.284 661.61 243.745C662.095 249.818 659.681 258.828 658.669 265.066C662.681 267.062 665.547 269.919 666.992 274.249C668.651 279.219 667.919 284.792 665.399 289.343C664.176 291.553 662.321 293.386 660.507 295.117C659.744 327.656 651.282 386.77 626.875 410.04C621.883 414.799 615.846 418.265 609.396 420.644C679.048 434.386 743.006 465.681 790.844 518.992C798.536 527.564 804.767 537.01 811.793 546.084C824.857 545.223 837.869 544.487 850.965 544.584C858.998 531.218 869.292 518.577 885.071 514.561C892.087 512.776 898.892 513.264 905.2 517.082C910.884 520.521 915.45 526.041 919.187 531.439C921.586 520 924.934 507.915 935.298 501.108C941.162 497.258 947.706 496.534 954.455 498.051C963.1 499.994 973.098 506.346 978.615 513.269C981.47 516.852 983.791 521.106 986.206 525.003C987.663 516.253 990.396 507.74 997.837 502.173C1002.71 498.53 1008.54 497.607 1014.45 498.64C1017.82 499.229 1020.87 500.468 1024 501.808L1024 507.208C1022.13 508.94 1022.47 510.94 1022.38 513.361C1022.23 517.047 1022.63 530.914 1021.66 533.326C1020.64 534.061 1020.58 533.972 1019.3 533.895C1017.57 532.054 1017.71 530.047 1017.77 527.616C1017.9 522.978 1020.39 509.947 1017.4 506.671C1016.25 506.311 1016.16 506.262 1015.02 506.623C1011.41 511.883 1007.67 526.968 1006.42 533.207C1006 535.269 1005.8 540.07 1004.86 541.729C1004.63 542.145 1004.21 542.424 1003.88 542.772C1002.67 542.962 1002.6 543.02 1001.54 542.453C999.923 538.534 1003.87 526.627 1004.96 522.247C1005.65 519.465 1011.01 507.868 1010.42 506.382C1009.43 505.967 1008.74 506.145 1007.77 506.552C1002.24 508.874 998.808 514.188 996.903 519.622C995.182 524.528 994.403 529.748 994.244 534.932C994.079 540.287 997.539 555.364 992.487 558.091C990.825 557.733 989.984 556.834 989.073 555.474C986.265 551.278 985.011 545.57 983.456 540.806C980.557 531.927 976.565 524.078 970.727 516.759C970.638 525.657 971.39 542.557 968.253 550.347L967.246 551.246L965.872 551.164C965.029 550.078 965.202 549.67 965.176 548.32C965.084 543.727 965.804 538.921 966.1 534.325Q966.674 523.764 966.343 513.193L966.212 513.741L966.741 513.504C965.438 512.397 965.028 511.774 963.302 511.562C960.297 512.789 958.587 517.176 957.397 519.998C955.115 525.406 955.783 534.107 951.844 538.402L950.755 538.753L950.004 538.346C949.126 533.413 951.454 523.768 953.396 519.078C954.79 515.714 956.797 512.439 957.991 509.024C958.379 507.914 958.319 507.558 957.36 506.823C956.143 505.891 953.966 505.699 952.497 505.52C950.214 506.54 948.938 510.022 948.086 512.295C946.127 517.518 944.123 523.027 942.725 528.429C941.204 534.302 937.951 555.175 935.82 558.173L934.946 558.364C933.598 557.016 933.497 555.746 933.517 553.873C933.658 540.585 941.272 516.74 947.387 504.973C940.061 507.373 935.79 511.756 932.306 518.519C929.103 524.738 926.023 533.564 926.379 540.635C926.707 547.151 932.419 556.672 931.308 562.523C931.043 563.924 930.371 564.397 929.308 565.245C928.003 565.534 927.121 565.535 925.926 564.821C922.864 562.992 918.39 547.801 916.219 543.524C916.025 546.453 916.2 550.984 913.9 553.095C912.66 552.33 912.254 551.27 911.908 549.868C910.854 545.599 911.942 539.328 912.027 534.899C910.152 532.085 908.292 529.412 906.05 526.875C902.844 535.859 902.357 546.339 902.053 555.848C901.931 559.679 902.189 563.983 901.384 567.729C901.103 569.033 900.832 569.712 899.802 570.545C898.826 570.141 898.279 569.99 897.871 568.89C896.237 564.48 898.578 542.04 899.46 536.584C900.041 532.985 901.997 528.14 901.56 524.597C901.493 524.048 900.874 523.542 900.454 523.263C898.436 521.92 896.304 521.154 893.878 521.32C889.74 524.076 888.449 555.524 882.216 555.257C881.221 554.349 880.536 553.47 880.537 552.048C880.539 549.354 881.761 546.246 882.422 543.637C884.205 536.59 886.31 529.118 887.397 521.951C884.176 523.162 881.315 524.451 878.393 526.29L871.873 567.685C871.098 572.627 870.844 577.9 869.759 582.754C869.467 584.058 869.018 586.037 868.061 587.045C867.872 587.244 867.615 587.363 867.391 587.523C866.213 587.259 866.435 587.321 865.709 586.542L866.227 586.577L865.406 586.036C862.788 580.812 871.868 537.991 872.869 529.208C869.281 532.49 865.369 535.719 863.311 540.239C861.012 545.288 860.537 552.606 859.42 558.127C857.257 568.83 846.809 621.728 843.217 627.856C842.467 629.135 842.363 629.088 840.998 629.233C839.843 628.717 839.386 628.607 838.639 627.61C838.872 620.254 842.248 611.894 844.04 604.736C846.707 594.08 848.75 583.27 851.123 572.547C852.955 564.269 855.501 555.66 856.366 547.238C852.418 555.15 848.783 563.253 846.111 571.696C843.134 581.106 833.52 627.93 829.108 631.337L827.799 631.368C826.673 630.036 826.382 628.761 826.524 627.018C826.945 621.871 828.945 616.386 830.349 611.405L822.104 612.117C820.296 617.218 814.994 635.094 812.309 638.205C811.103 638.598 811.046 638.766 809.906 638.265C808.136 633.837 814.665 617.83 816.534 612.865C813.631 613.298 810.687 613.657 807.81 614.23C806.638 619.178 801.711 639.579 797.991 642.173C797.383 642.597 796.837 642.45 796.134 642.453C795.087 641.601 795.076 641.576 794.77 640.26C795.547 637.676 796.717 635.244 797.543 632.674C799.319 627.149 800.816 621.508 802.402 615.925C799.488 617.122 796.573 618.302 793.724 619.65C791.359 626.623 788.102 639.898 783.166 645.219L781.947 645.694C781.087 644.726 781.084 644.003 781.133 642.747C781.377 636.402 785.359 628.819 787.746 622.976C778.415 630.613 773.925 635.66 772.335 648.01C804.379 648.911 836.504 649.176 868.525 650.441C863.928 647.266 859.171 644.158 858.004 638.251C857.436 635.376 857.963 632.37 859.639 629.947C862.813 625.36 868.55 623.978 873.641 622.69C869.581 619.634 865.004 615.466 864.393 610.117C864.083 607.407 864.988 604.847 866.724 602.775C870.217 598.606 875.977 597.126 881.202 596.845C887.741 596.493 894.034 597.933 899.578 601.476C900.439 599.546 901.357 597.624 902.126 595.656C901.006 590.612 899.088 584.152 902.177 579.453C903.562 577.348 905.972 575.735 908.446 575.265C912.295 574.534 916.193 576.292 919.237 578.513C922.261 580.719 929.144 587.374 929.545 591.155C929.715 592.764 929.592 593.959 928.622 595.253C926.816 595.486 925.491 594.886 924.047 593.797C919.535 590.392 915.81 583.454 909.678 582.93C909.089 583.272 908.678 583.322 908.444 584.018C905.951 591.439 915.628 604.247 914.62 609.502C914.367 610.824 913.701 611.107 912.694 611.866C911.375 611.935 910.808 612.007 909.768 610.994C907.447 608.734 908.1 604.705 904.957 602.779C902.456 604.506 904.152 610.319 900.059 609.71C892.495 608.585 891.025 602.84 879.315 604.74C877.307 605.066 874.678 605.675 872.989 606.851C872.104 607.468 872.085 607.747 871.851 608.736C873.891 616.236 887.435 621.022 886.613 627.391C885.978 628.424 885.919 628.669 884.674 628.987C879.384 630.337 869.762 628.389 866.259 633.81C865.493 634.995 865.63 635.266 865.97 636.527C871.388 641.997 883.045 638.784 887.853 643.717L887.285 645.248L887.48 645.32C882.341 646.861 877.757 645.65 872.61 645.213C876.991 647.125 881.218 648.956 885.937 649.837C893.88 651.321 902.791 650.897 910.899 651.143C923.209 651.517 935.615 652.281 947.919 651.815C942.415 647.505 936.645 643.627 935.602 636.078C935.124 632.615 936.12 629.341 938.269 626.608C941.812 622.1 947.364 619.656 952.975 619.104C956.938 618.715 960.768 619.339 964.608 620.305C965.359 612.367 967.455 602.576 973.835 597.127C975.526 595.682 977.345 594.815 979.604 595.004C982.658 595.258 985.777 598.478 987.391 600.844C990.191 604.948 991.973 611.337 991.012 616.276C990.767 617.534 990.294 619.033 989.266 619.871C988.893 620.175 988.843 620.1 988.326 620.17C987.052 619.553 986.388 618.544 985.889 617.244C984.394 613.348 984.49 605.46 980.369 603.401C979.529 602.982 979.047 603.21 978.162 603.323C974.324 606.001 973.317 611.785 972.527 616.154C971.82 620.064 972.064 624.296 970.74 628.043L970.005 628.558C962.492 626.842 953.22 623.953 946.126 628.51C945.346 629.012 944.815 629.375 944.379 630.214C945.065 631.371 945.873 631.479 947.141 631.754C950.312 632.444 955.631 632.137 957.864 634.778C957.935 635.864 957.808 636.87 956.962 637.69C956.031 638.592 954.992 638.553 953.787 638.411C950.079 637.975 946.472 637.128 942.702 636.783C945.938 640.483 948.776 642.831 952.972 645.388C954.436 646.281 956.787 647.403 957.996 648.589C958.333 648.919 958.346 649.69 958.305 650.118C958.256 650.619 958.166 651.115 958.089 651.612C960.91 654.146 1002.57 651.221 1010.63 654.114C1012.1 654.642 1013.37 655.638 1013.51 657.295C1013.61 658.446 1013.06 659.391 1012.34 660.204C1006.21 662.036 984.964 660.361 977.607 660.193Q945.522 659.699 913.449 658.673L678.829 653.617L607.344 651.746C592.334 651.371 577.271 650.76 562.263 651.388Q559.4 750.407 549.855 849.006C549.235 855.35 547.395 885.136 543.567 889.028C541.439 891.192 537.547 892.105 534.68 892.883Q533.696 899.928 532.429 906.927L533.167 907.008C540.625 907.869 548.097 911.98 555.144 914.508C561.454 916.772 568.309 918.478 574.276 921.531C577.226 923.041 580.164 924.919 582.254 927.53C583.701 929.337 584.777 931.687 584.519 934.051C584.276 936.274 582.759 938.037 580.988 939.277C569.194 947.529 532.643 943.804 518.418 940.899C513.688 939.934 505.327 938.181 502.516 933.93C499.289 929.05 506.336 902.269 506.721 894.802C503.134 893.961 498.001 893.194 495.86 889.837C494.894 888.321 495.267 884.81 495.347 882.976C495.795 872.696 496.953 862.448 497.47 852.166Q499.765 808.997 500.849 765.781C501.084 759.004 502.517 746.693 501.672 740.712C499.925 743.312 498.272 765.434 497.654 770.637C496.356 781.569 484.303 887.442 480.91 891.339C478.199 894.452 469.128 895.767 465.137 896.805C464.327 908.013 461.464 918.529 462.712 929.857C466.714 933.368 471.898 937.122 476.627 939.556C484.744 943.735 510.785 952.643 511.505 962.656C511.655 964.744 510.679 966.598 509.305 968.104C505.476 972.303 499.696 972.914 494.325 973.01C480.983 973.248 440.928 967.381 431.705 958.931C430.185 957.539 429.325 955.974 429.352 953.887C429.465 945.161 433.407 933.775 435.015 924.975C436.915 914.575 436.591 903.257 436.429 892.709C430.717 890.793 425.347 888.963 420.123 885.899C419.645 874.855 420.113 863.726 420.38 852.678L421.058 816.646L423.614 702.993C424.025 685 425.004 666.948 424.985 648.952Q366.981 648.399 308.987 647.153L194.166 645.844Q118.498 644.081 42.811 643.603C40.9264 643.598 36.9304 644.019 35.5894 642.444C34.6531 641.344 34.5871 640.108 34.5784 638.748C35.4117 637.371 35.9864 636.811 37.5999 636.468C42.1305 635.503 58.1192 636.488 63.7264 636.529Q95.0034 636.72 126.275 637.337C138.428 637.555 150.904 638.387 163.022 637.624C164.988 636.06 169.153 633.729 169.559 631.101C169.684 630.293 169.267 630.129 168.792 629.551C164.549 627.783 155.812 629.852 153.468 627.33C153.366 626.235 153.266 625.982 153.998 625.069C156.713 621.687 168.445 619.36 167.512 613.603C167.148 611.356 164.367 609.454 162.528 608.448C158.18 606.07 151.847 606.785 147.288 608.259C144.166 609.269 138.647 612.365 135.435 610.804C134.859 610.524 134.95 610.059 134.817 609.49C136.061 606.21 138.861 604.394 141.971 602.991C148.503 600.045 157.267 598.817 164.088 601.406C167.647 602.757 171.161 605.363 172.744 608.923C174.71 613.343 173.645 617.913 171.84 622.16L171.525 622.892C174.116 624.042 176.416 625.216 177.438 628.044C178.267 630.339 177.589 633.133 176.411 635.187C175.902 636.074 175.291 636.912 174.694 637.742C188.776 638.42 202.848 638.5 216.943 638.618C224.479 638.681 232.153 639.12 239.671 638.707C242.435 635.861 245.214 633.069 248.468 630.775C248.518 628.242 249.086 623.878 247.507 621.78C247.392 621.627 247.239 621.507 247.104 621.371C246.135 621.381 246.106 621.281 245.231 621.823C241.694 624.01 228.842 630.286 225.144 630.866L224.611 630.317C225.185 628.197 227.265 626.342 229.149 625.302C234.05 622.599 239.193 620.873 243.968 617.771C242.25 616.357 240.567 614.894 238.703 613.673C235.066 617.122 224.768 622.242 219.821 622.816L218.855 622.493L218.495 621.422C220.367 617.804 231.538 614.78 235.375 612.106L234.651 611.866Q232.973 611.312 231.251 610.918Q229.528 610.524 227.776 610.292Q226.025 610.06 224.259 609.993Q222.493 609.927 220.729 610.025C217.076 610.212 207.895 613.375 205.005 611.807L204.704 610.53L204.11 610.417C202.821 610.163 201.775 610.091 200.83 609.095C200.808 607.778 201.047 607.265 201.966 606.29C203.393 604.776 205.412 603.657 207.16 602.545C213.889 598.264 216.521 595.821 220.181 588.709C216.256 590.354 201.679 598.697 198.698 597.719C198.568 597.676 198.452 597.598 198.329 597.538C198.894 595.408 203.449 593.188 205.273 592.124C209.581 589.61 214.377 587.614 218.966 585.66C218.018 583.287 217.123 580.907 215.893 578.663C207.517 580.81 200.293 584.235 192.444 587.731C191.304 587.021 191.081 587.033 190.633 585.792C193.062 582.014 209.354 576.838 214.08 575.522C212.363 572.961 210.788 570.932 208.227 569.134C205.131 570.552 197.98 575.463 194.813 574.639L194.274 573.649C194.65 572.483 194.848 571.696 195.987 571.069C198.749 569.548 202.308 569.597 203.874 566.528C203.091 564.411 201.335 563.821 199.39 562.888C196.212 565.076 176.613 577.219 173.39 576.858C173.111 576.245 172.775 576.004 173.105 575.335C175.362 570.764 190.659 565.266 195.422 562.413C190.79 561.072 186.439 560.467 181.619 560.394C177.379 564.186 163.175 573.225 157.997 575.693L157.213 575.324C157.13 574.118 157.269 573.09 158.09 572.15C161.273 568.506 173.872 562.338 178.513 560.095C172.954 560.602 164.636 560.382 159.553 562.673C155.905 564.318 153.015 570.161 149.012 569.484C148.542 568.819 148.306 568.833 148.506 567.953C148.916 566.147 150.531 564.537 151.695 563.143C148.272 565.257 141.324 570.635 137.243 570.322L136.712 569.778C138.645 565.348 151.051 560.105 155.206 556.228C155.527 555.928 155.861 555.643 156.186 555.347C154.103 555.938 152.253 556.565 150.059 556.382L149.359 555.875C151.237 551.199 161.789 548.107 158.648 541.461C158.554 541.262 158.435 541.077 158.328 540.884C156.138 540.436 153.344 542.23 151.6 543.387C147.646 546.009 141.919 551.746 137.259 552.458C136.181 551.849 136.126 551.842 135.636 550.713C137.525 547.257 153.085 539.278 157.288 536.514C155.87 534.068 154.381 532.049 152.512 529.934C149.448 532.989 130.623 547.293 127.162 547.256C126.637 547.251 126.375 547.143 125.904 547.001L125.627 546.185C127.548 543.431 145.657 531.427 149.995 527.92C148.228 526.194 146.35 524.898 144.301 523.548L143.7 523.902C139.044 526.708 128.095 538.739 124.498 538.893L123.516 538.447C124.389 532.751 137.691 527.414 138.27 522.156C137.145 521.309 135.915 521.491 134.565 521.715C132.218 522.104 130.847 522.728 129.135 524.429C124.461 529.498 118.694 536.818 114.029 541.344C112.867 541.082 112.724 540.942 111.857 540.111C112.967 534.7 123.204 529.056 126.024 524.352C126.116 524.198 126.18 524.03 126.258 523.868C120.825 525.384 115.514 527.687 111.703 531.97C109.562 534.376 107.699 536.739 104.897 538.441C103.403 538.546 102.787 538.356 101.474 537.752C99.534 534.073 105.86 525.419 107.535 521.763C108.721 519.173 109.494 516.699 109.929 513.884C109.966 513.644 109.998 513.403 110.032 513.163C106.715 516.681 102.551 523.323 98.0552 525.025L97.3467 524.661L97.2313 523.446C99.128 519.03 105.713 512.545 109.952 510.281C109.758 508.387 109.366 506.472 109.073 504.587C105.905 508.451 102.226 512.153 98.6559 515.645C99.0504 513.826 99.5252 512.257 100.457 510.633C101.794 508.301 104.181 504.856 106.862 504.082C107.231 503.362 107.444 502.754 107.677 501.985C107.355 499.926 106.08 498.479 104.89 496.83C99.2263 502.574 93.9692 512.764 87.9131 517.177L86.9004 516.676L86.8985 515.87L87.5134 515.94L86.9764 515.331C88.0649 510.648 98.9223 498.748 102.547 494.222C100.701 492.252 98.9463 490.706 96.7351 489.156C94.835 493.613 86.4893 503.785 82.5078 506.881C81.4671 507.69 80.9541 508.053 79.6116 507.828L79.4651 506.998C81.6583 501.749 90.2608 491.211 95.0432 488.093C92.2872 486.573 89.7551 485.518 86.6827 484.757C80.8931 490.093 76.1619 496.65 71.569 503.017C70.251 504.844 69.2345 507.055 67.8032 508.757C67.187 509.489 66.64 509.901 65.6959 510.066L64.6699 509.401C64.2905 504.876 74.6477 492.888 77.966 488.98Q79.7059 486.941 81.5157 484.963L73.8687 484.625L73.3375 484.989C67.635 488.983 65.5223 495.68 60.3414 499.577C59.6082 498.63 59.9269 499.15 59.4024 498.008C56.711 499.513 54.8848 508.018 53.2709 508.681C52.7705 508.887 52.1925 508.594 51.6533 508.55C51.0039 507.692 50.8901 507.649 51.0964 506.531C51.5969 503.82 53.8915 500.372 53.3256 497.647C50.669 498.685 48.3889 504.162 45.4875 503.391C45.0833 501.94 45.8041 500.752 46.5042 499.476C48.3753 496.065 51.1379 493.123 52.6194 489.527C51.979 486.437 51.2637 484.038 49.599 481.315L49.0968 481.743C46.1827 484.277 43.1365 491.142 39.7467 492.249C39.1594 491.691 39.1186 491.871 39.0809 491.103C38.8242 485.873 46.4574 481.468 46.0082 478.741C44.9864 477.893 43.3756 477.147 41.9888 477.525C38.1612 478.569 37.7905 483.646 33.0954 483.335C32.7003 482.251 32.7673 482.26 33.2791 481.272C34.0124 479.856 35.1491 478.545 36.1154 477.279C34.5099 477.908 32.7071 478.52 31.3193 479.559C28.7413 481.489 24.7324 487.334 21.1414 485.867C20.4146 485.57 20.3938 485.109 20.0692 484.449C20.1717 480.957 22.4949 478.133 24.9686 475.849C29.6043 471.567 35.6692 468.836 42.0648 469.306C47.1045 469.676 51.1029 472.256 54.2282 476.133C56.1202 478.48 57.0667 480.961 58.0532 483.757C68.2309 477.911 78.7727 475.106 90.4096 478.317C99.5327 480.835 108.65 487.305 113.355 495.601C116.507 501.16 118.631 508.998 116.807 515.259C116.429 516.558 115.959 517.84 115.484 519.106C126.994 515.296 137.694 511.477 149.352 517.517C157.074 521.517 162.925 529.044 165.379 537.349C167.095 543.155 166.602 549.014 165.459 554.867C180.572 552.091 196.732 551.388 209.951 560.61C214.844 564.024 219.459 568.623 222.47 573.804C223.597 575.743 224.48 577.986 225.816 579.781C226.455 580.641 227.097 581.133 228.112 581.445C230.972 580.617 236.387 569.575 238.195 566.547C249.618 547.415 263.812 529.995 279.129 513.858C312.746 478.439 354.552 452.913 399.728 434.942C398.702 428.761 397.754 422.543 396.545 416.396C395.762 412.418 394.516 408.398 394.227 404.353C392.241 376.506 404.054 325.48 420.121 303.071C430.349 288.806 446.937 280.132 464.063 277.421C468.866 276.66 473.74 276.446 478.596 276.401C481.629 268.201 484.053 257.643 481.775 248.993C480.505 244.17 478.373 239.586 477.02 234.774C472.878 234.548 469.402 232.629 466.633 229.524Q466.156 228.979 465.733 228.391Q465.311 227.802 464.948 227.176Q464.584 226.549 464.283 225.89Q463.982 225.231 463.747 224.547Q463.511 223.862 463.342 223.157Q463.174 222.453 463.075 221.735Q462.976 221.018 462.946 220.294Q462.917 219.57 462.958 218.847C463.043 217.485 463.436 216.213 463.861 214.926Z"/>
	<path d="M643.457 248.851C644.668 249.056 645.964 249.273 646.889 250.177C647.698 250.968 647.956 251.985 647.735 253.082C647.416 254.669 646.109 255.657 644.931 256.621C643.515 256.525 642.811 256.409 641.543 255.675C641.019 254.89 640.613 254.599 640.631 253.608C640.672 251.365 641.924 250.273 643.457 248.851Z"/>
	<path d="M567.438 406.13C568.174 406.395 568.7 406.741 569.335 407.184C573.639 410.187 578.269 411.714 582.622 414.412C584.222 415.403 585.673 416.744 587.063 418.007C581.269 418.311 574.296 416.627 568.462 415.91L567.438 406.13Z"/>
	<path d="M562.757 924.355C568.696 926.027 573.189 928.042 577.784 932.309L570.622 932.922C565.549 933.381 560.602 933.466 555.516 933.422C557.564 930 559.824 927.055 562.757 924.355Z"/>
	<path d="M444.03 894.51C448.629 895.683 453.595 895.914 458.311 896.418L456.243 906.838C456.225 906.863 456.213 906.894 456.189 906.912C453.982 908.487 446.471 907.428 443.486 907.292C443.468 903.016 443.75 898.774 444.03 894.51Z"/>
	<path d="M538.628 874.611C539.177 874.684 538.855 874.574 539.419 875.253C539.322 878.066 538.602 880.893 538.071 883.653C527.135 886.731 515.265 887.815 504.139 885.132C503.484 884.992 503.252 884.805 502.72 884.421C502.302 882.311 502.904 879.992 503.236 877.886C515.492 878.694 526.689 877.373 538.628 874.611Z"/>
	<path d="M654.858 269.461C656.141 269.737 657.514 270.122 658.674 270.753C660.896 271.961 662.414 274.57 662.918 276.985C663.701 280.736 662.891 284.829 660.654 287.949C658.507 290.944 656.246 291.82 652.709 292.424C651.926 292.311 651.14 292.196 650.367 292.023C648.156 291.526 645.829 289.449 644.749 287.485C643.339 284.919 643.532 281.383 644.502 278.706C646.282 273.792 650.428 271.559 654.858 269.461Z"/>
	<path d="M427.411 873.265C442.731 880.037 460.082 881.328 476.457 878.773C476.015 881.275 475.406 883.739 474.825 886.212C470.832 888.766 462.048 888.14 457.46 887.948C451.118 887.682 431.924 885.815 427.862 880.856C426.519 879.216 427.257 875.274 427.411 873.265Z"/>
	<path d="M250.939 588.242Q281.855 587.997 312.746 589.248C323.522 589.68 335.127 589.551 345.646 591.973L345.475 592.147C338.052 592.437 330.65 592.442 323.222 592.401C313.796 592.437 230.415 593.064 228.596 592.061C227.843 590.943 227.874 590.883 227.948 589.527C229.788 587.698 247.164 588.268 250.939 588.242Z"/>
	<path d="M510.825 911.709C515.687 912.068 521.324 910.886 525.973 911.945C526.237 912.71 526.55 913.243 527.021 913.899C530.732 915.536 535.132 913.58 538.832 912.575C535.903 915.787 531.172 917.526 528.667 920.834C528.499 921.749 528.296 922.421 528.61 923.332C528.848 924.022 529.16 923.971 529.77 924.25C535.104 923.617 537.775 918.054 542.077 915.859C542.743 915.519 542.921 915.759 543.578 915.972C542.392 918.539 538.744 920.378 536.768 922.486C535.854 923.461 535.413 924.04 535.386 925.376C539.039 927.982 545.929 919.416 550.234 919.412C550.527 919.412 550.819 919.434 551.112 919.445C549.042 921.91 546.136 922.37 545.228 925.897L545.741 926.64C550.911 927.736 553.494 922.006 557.885 921.623C557.662 924.714 554.436 925.745 554.536 930.154C554.559 931.181 554.614 931.924 554.299 932.92C547.702 936.336 516.709 928.353 508.878 925.941C509.837 921.306 510.2 916.412 510.825 911.709Z"/>
	<path d="M459.299 936.664C459.617 936.647 459.937 936.57 460.253 936.613C461.247 936.75 462.288 937.399 463.002 938.08C460.341 939.352 455.429 940.892 454.111 943.564C457.355 946.296 464.356 942.244 468.214 942.151C469.344 942.673 469.652 942.654 470.389 943.711C466.825 945.927 462.005 944.902 458.333 947.754C457.808 948.897 457.835 948.849 458.207 950.055C463.167 952.253 473.053 945.382 479.543 947.323L479.819 948.923L480.284 947.998C479.636 949.734 476.197 951.056 474.806 952.622L474.972 953.52C475.472 953.816 475.945 954.133 476.517 954.29C479.34 955.062 483.436 952.293 485.832 950.988C489.282 952.2 492.477 953.738 495.742 955.379C499.092 957.265 501.674 959.285 504.276 962.074C487.743 963.611 452.276 957.164 436.446 950.638C437.668 946.224 438.539 941.958 439.167 937.414C446.145 939.44 452.384 937.932 459.299 936.664Z"/>
	<path d="M487.139 257.701C490.885 260.117 494.828 262.289 498.446 264.891C503.97 268.861 508.751 273.247 515.053 276.015C514.753 280.436 514.88 284.738 515.094 289.154C511.791 290.508 508.58 291.575 505.109 292.411C504.808 292.481 504.507 292.556 504.205 292.622C494.54 294.716 485.55 292.19 477.437 286.958C484.274 278.607 486.766 268.33 487.139 257.701Z"/>
	<path d="M649.052 297.102L655.485 297.585C655.725 317.516 648.818 354.186 642.371 373.225C637.5 387.609 629.228 406.052 614.624 412.942C607.397 416.351 600.606 416.233 593.235 413.599C590.659 412.403 588.194 410.999 585.714 409.62C591.288 403.149 594.346 396.234 597.112 388.218C601.163 388.366 605.083 388.202 608.64 386.022C625.993 375.388 644.224 317.455 649.052 297.102Z"/>
	<path d="M430.389 410.712C432.017 410.521 433.725 410.536 435.366 410.455C438.139 445.886 443.855 481.41 450.741 516.25C452.451 524.901 453.816 536.062 457.121 544.038C457.669 545.36 458.646 546.424 459.601 547.466C455.826 553.968 452.113 560.507 447.61 566.542C445.841 562.858 444.198 559.104 442.504 555.384C438.09 545.321 434.523 534.829 430.827 524.484C419.158 491.815 404.677 446.366 401.229 411.995Q415.831 411.854 430.389 410.712Z"/>
	<path d="M502.081 180.346C512.008 179.727 534.768 185.634 542.995 191.173L544.754 198.019L544.512 198.427C542.383 197.366 540.117 197.071 537.75 197.108C535.676 197.14 534.127 197.297 532.633 198.84C532.452 200.054 532.334 200.712 533.125 201.803C535.074 204.493 543.853 203.732 547.256 204.258Q548.612 211.28 548.674 218.431C548.844 232.565 545.198 248.764 535.064 259.145Q529.779 260.284 524.378 260.503C511.73 260.627 499.677 259.73 488.782 252.694C485.196 245.139 483.029 236.694 480.702 228.682C479.603 228.914 478.476 229.171 477.354 229.269C474.881 229.485 472.678 228.083 470.887 226.498C469.155 224.965 467.869 222.843 467.764 220.492C467.665 218.301 468.696 215.364 470.388 213.904C474.968 209.953 479.3 217.039 483.888 217.055C484.74 216.557 485.1 216.594 485.4 215.513C486.182 212.693 485.96 208.784 486.274 205.806C486.668 202.071 487.683 198.56 488.745 194.967C492.362 193.709 495.818 192.372 499.07 190.327C500.24 187.085 500.991 183.636 502.081 180.346Z"/>
	<path fill="#E9E9E9" d="M540.633 208.245C542.28 208.537 543.607 209.356 544.542 210.742C545.417 212.039 545.57 213.518 545.085 214.997C544.572 216.564 543.502 217.117 542.151 217.825C540.526 217.42 539.068 216.988 538.02 215.55C537.284 214.54 536.99 213.388 537.265 212.159C537.713 210.152 539.012 209.246 540.633 208.245Z"/>
	<path fill="#E9E9E9" d="M502.235 212.451C504.188 212.312 505.925 212.197 507.63 213.36C508.67 214.069 509.466 214.99 509.593 216.297C509.794 218.378 508.651 219.665 507.292 221.015C505.151 221.175 503.317 221.147 501.552 219.74C500.486 218.89 500.052 217.888 500.022 216.562C499.981 214.734 501.052 213.662 502.235 212.451Z"/>
	<path fill="#E9E9E9" d="M523.681 211.181L526.035 211.412C530.783 214.835 525.565 223.322 527.979 227.862C528.943 229.677 532.896 228.189 534.734 228.593L535.248 229.544C534.971 230.894 534.621 231.854 534 233.086C532.674 233.43 531.302 233.83 529.921 233.794C528.072 233.747 526.458 233.023 525.235 231.622C521.519 227.361 523.384 216.507 523.681 211.181Z"/>
	<path fill="#E9E9E9" d="M511.731 199.211C513.018 199.173 514.492 199.154 515.752 199.454C517.181 199.796 517.642 200.497 518.41 201.66C518.471 203.261 518.483 203.549 517.728 204.945C514.355 207.373 508.739 206.004 504.667 206.525L503.906 206.626C502.778 206.78 501.324 207.085 500.181 207.003C498.775 206.901 497.916 205.982 496.96 205.072C496.513 203.865 496.422 203.882 496.882 202.697C500.48 199.272 507.071 199.516 511.731 199.211Z"/>
	<path fill="#E9E9E9" d="M505.982 235.336C509.948 236.351 512.628 239.711 516.407 241.173C525.723 244.776 529.635 240.272 537.262 240.414C538.049 240.429 537.802 240.414 538.412 241.008C538.237 242.506 537.952 242.679 536.957 243.847C532.256 246.253 527.875 247.377 522.518 246.854C517.527 246.368 510.301 244.607 507.185 240.451C505.869 238.695 505.651 237.469 505.982 235.336Z"/>
	<path d="M831.116 552.713C836.127 552.363 841.214 552.494 846.238 552.458C839.122 564.771 836.169 577.587 833.199 591.292C822.229 590.575 811.061 590.92 800.064 590.917L743.173 590.925L572.75 590.545L563.991 590.504L564.197 583.623Q574.105 583.576 583.94 582.381Q593.776 581.187 603.407 578.862C618.012 575.25 632.145 570.125 647.296 569.221C657.202 568.631 665.625 572.706 675.078 574.745C683.363 576.531 692.217 577.043 700.69 577.158Q710.99 577.294 721.181 575.796C735.721 573.613 747.778 566.895 761.613 562.72C784.395 555.845 807.484 554.123 831.116 552.713Z"/>
	<path d="M358.476 599.255C371.181 598.844 383.945 599.033 396.656 599.04C406.459 599.046 416.377 598.749 426.163 599.317C426.248 613.285 425.533 627.296 425.318 641.272C407.217 641.629 389.066 641.102 370.962 640.884L288.896 639.82C276.772 639.237 264.544 639.281 252.402 638.997C253.727 635.835 255.208 632.888 255.708 629.454C256.477 624.179 255.208 619.183 251.926 614.961C244.976 606.021 232.488 604.334 222.024 602.808L225.622 599.615L358.476 599.255Z"/>
	<path d="M564.656 598.711L830.079 598.584L828.991 604.227C816.15 605.205 805.185 607.089 793.165 611.905C787.207 614.762 781.754 618.138 776.886 622.64C769.685 629.299 765.392 637.656 765.036 647.528C736.506 647.991 707.773 646.583 679.241 645.818L562.499 643.377C562.563 634.411 562.979 625.419 563.223 616.454C563.362 611.327 563.112 605.811 563.76 600.738C563.893 599.7 563.784 599.363 564.656 598.711Z"/>
	<path d="M400.896 443.018C401.024 443.148 401.168 443.263 401.278 443.408C401.853 444.16 414.688 492.802 416.587 498.78Q420.244 510.07 424.212 521.255C425.773 525.642 428.45 531.041 428.993 535.631C429.641 541.121 428.576 547.764 428.33 553.337C427.769 566.027 427.526 578.807 426.505 591.464C413.832 591.523 400.645 592.255 388.032 591.295C383.25 590.931 378.427 589.645 373.725 588.713Q363.391 586.661 352.947 585.266C327.703 582.109 302.644 581.207 277.25 580.964C264.394 580.869 251.759 580.696 238.898 581.282C274.95 516.801 332.321 469.64 400.896 443.018Z"/>
	<path d="M568.592 423.473C583.428 424.674 598.251 426.968 612.89 429.639C622.815 431.449 632.481 434.112 642.172 436.895C705.747 455.149 765.405 492.462 803.436 547.353C789.815 548.858 776.65 550.55 763.378 554.086C754.127 556.52 745.737 560.449 736.833 563.736C719.682 570.068 700.113 570.601 682.214 567.679C669.264 565.566 658.208 560.443 644.744 561.705C631.399 562.955 619.032 567.569 606.135 570.763Q595.803 573.239 585.289 574.762Q574.775 576.285 564.165 576.842Q563.869 563.772 564.415 550.711C566.479 550.154 569.398 549.382 571 547.92C571.978 547.027 572.352 546.356 572.538 545.041C573.653 537.176 572.317 522.783 572.067 514.468C571.157 484.184 568.59 453.745 568.592 423.473Z"/>
	<path d="M463.858 549.188C491.97 559.749 528.217 557.004 557.441 552.152C557.815 580.781 555.976 609.712 555.001 638.335Q552.128 754.213 540.182 869.509C527.845 873.215 516.791 874.081 503.998 873.315Q508.561 799.539 509.507 725.627C509.603 716.617 509.506 707.604 509.653 698.595C509.769 691.508 510.191 684.393 510.058 677.307C509.971 672.617 508.477 668.03 508.599 663.37C508.818 655.07 510.075 646.547 510.798 638.264Q513.518 609.515 515.272 580.69C515.485 577.06 516.554 571.7 515.757 568.298C515.649 567.833 514.963 566.988 514.694 566.545C513.468 566.813 512.424 567.18 511.267 567.647C510.174 568.708 510.1 569.909 509.949 571.358C507.722 592.785 506.943 614.423 504.909 635.884Q496.433 724.266 484.815 812.29C482.055 832.724 480.728 853.794 476.739 874.015C472.595 874.971 468.523 875.362 464.274 875.42C456.461 875.528 434.069 873.672 428.371 868.142C426.381 861.651 428.127 843.115 428.275 835.507L429.457 777.055L432.326 640.017Q433.361 595.625 435.588 551.277C437.435 557.111 441.473 562.581 442.822 568.405C443.213 570.092 442.931 571.802 443.109 573.498C443.25 574.849 443.852 575.352 444.838 576.173C445.37 576.14 445.728 576.155 446.253 575.931C451.773 573.574 461.596 554.979 463.858 549.188Z"/>
</svg>
